<svg width="187" height="57" viewBox="0 0 187 57" fill="none" xmlns="http://www.w3.org/2000/svg">
<g clip-path="url(#clip0_3157_376)">
<path d="M98.1433 16.2927C97.847 16.3048 97.5565 16.3778 97.2897 16.5073C97.023 16.6368 96.7858 16.8199 96.593 17.0452C96.593 17.0678 94.2413 20.1419 93.184 21.5417L91.4344 17.1769C91.3044 16.9099 91.1015 16.6852 90.8491 16.5287C90.5967 16.3722 90.3052 16.2904 90.0083 16.2927H87.856C87.6104 16.2925 87.3686 16.3524 87.1515 16.4672C86.9344 16.582 86.7487 16.7481 86.6105 16.9511C86.462 17.1614 86.3819 17.4124 86.381 17.6698C86.3791 17.8234 86.4085 17.9758 86.4676 18.1176C86.4676 18.1176 89.173 24.7099 89.7298 26.072L83.6229 34.0941C83.4437 34.3307 83.3437 34.6177 83.337 34.9144C83.3353 35.0881 83.3753 35.2597 83.4536 35.4148C83.5602 35.6106 83.7198 35.7723 83.9142 35.8815C84.1085 35.9907 84.3297 36.0428 84.5523 36.0319H86.667C86.9771 36.025 87.2817 35.9476 87.5574 35.8054C87.8332 35.6633 88.073 35.4603 88.2586 35.2117L91.6451 30.7829C92.1116 31.9117 93.4324 35.1176 93.4324 35.1176C93.5508 35.3955 93.7502 35.6314 94.0045 35.7944C94.2589 35.9575 94.5564 36.0403 94.8584 36.0319H96.9731C97.2287 36.0368 97.4813 35.9764 97.7071 35.8566C97.9329 35.7368 98.1244 35.5615 98.2637 35.3471C98.3935 35.1506 98.4628 34.9204 98.4631 34.6849C98.463 34.5118 98.4244 34.3408 98.3502 34.1844L95.1218 26.2187L101.191 18.2342C101.382 18.0031 101.49 17.714 101.496 17.414C101.495 17.2498 101.458 17.0878 101.387 16.9399C101.28 16.7355 101.117 16.5659 100.917 16.4513C100.717 16.3366 100.488 16.2815 100.258 16.2927H98.1433Z" fill="#EC2429"/>
<path d="M117.732 18.667C117.081 17.9079 116.268 17.304 115.353 16.8997C114.438 16.4954 113.445 16.3009 112.445 16.3303H110.564C106.752 16.3303 103.415 19.0658 102.764 22.6893L99.3358 42.0184C99.3068 42.2065 99.3186 42.3987 99.3706 42.5818C99.4225 42.7649 99.5133 42.9347 99.6368 43.0795C99.7626 43.2235 99.9184 43.3382 100.093 43.4156C100.268 43.493 100.458 43.5311 100.649 43.5273H102.722C103.111 43.5295 103.488 43.3951 103.788 43.1475C104.088 42.8999 104.291 42.5549 104.363 42.1727C104.363 42.1727 105.217 37.4542 105.465 36.0658L109.111 36.0319C114.003 36.0319 118.417 31.8365 119.391 26.2677C119.91 23.2951 119.308 20.5257 117.732 18.667ZM114.387 26.0983C113.747 29.6391 111.565 31.4978 109.743 31.4978H106.244C106.425 30.4781 107.749 22.8436 107.749 22.8436C107.845 22.3152 108.11 21.8322 108.503 21.4666C108.897 21.101 109.398 20.8726 109.932 20.8155L111.813 20.7816C112.163 20.7805 112.509 20.8588 112.824 21.0106C113.14 21.1625 113.417 21.3839 113.634 21.6583C114.221 22.3507 114.522 23.3666 114.522 24.5932C114.52 25.0979 114.474 25.6014 114.387 26.0983Z" fill="#EC2429"/>
<path d="M123.187 22.5765L121.072 34.5194C121.034 34.6977 121.036 34.8823 121.079 35.0595C121.122 35.2367 121.205 35.402 121.32 35.5429C121.45 35.6969 121.613 35.8203 121.797 35.9042C121.98 35.9881 122.18 36.0305 122.381 36.0283H124.458C124.847 36.0173 125.22 35.8752 125.517 35.6252C125.814 35.3751 126.018 35.0318 126.095 34.6511L128.21 22.7496C128.39 21.6208 129.504 20.7554 130.343 20.7554L134.738 20.8268C135.141 20.8261 135.532 20.6871 135.845 20.4331C136.158 20.179 136.374 19.8252 136.458 19.4309V19.4497L136.714 18.0161C136.746 17.8286 136.738 17.6365 136.692 17.4519C136.646 17.2674 136.563 17.0943 136.446 16.9437C136.331 16.8019 136.187 16.6862 136.023 16.6045C135.86 16.5227 135.681 16.4768 135.498 16.4696L130.942 16.2928C129.113 16.2475 127.328 16.8552 125.907 18.0067C124.486 19.1582 123.521 20.7783 123.187 22.5765Z" fill="#EC2429"/>
<path d="M152.961 18.2945C151.9 17.0264 150.259 16.3303 148.34 16.3303H145.541C141.752 16.3303 138.414 19.0169 137.778 22.5802L136.522 29.609C136.359 30.3817 136.37 31.181 136.554 31.9489C136.738 32.7169 137.091 33.4342 137.587 34.049C138.655 35.3283 140.311 36.032 142.245 36.032H142.418C147.065 36.032 149.353 35.4073 149.612 34.0151L149.864 32.5364C149.889 32.3168 149.863 32.0943 149.787 31.8867C149.711 31.679 149.588 31.4918 149.428 31.3398C149.272 31.2022 149.085 31.106 148.882 31.06C148.68 31.0139 148.469 31.0196 148.269 31.0764C146.388 31.5618 144.668 31.5618 142.854 31.5618C142.668 31.564 142.483 31.5251 142.313 31.4477C142.144 31.3703 141.993 31.2564 141.872 31.1141C141.723 30.9277 141.617 30.7107 141.561 30.4785C141.505 30.2464 141.501 30.0047 141.549 29.7708C141.549 29.7708 141.624 29.3456 141.688 29.0182H146.26C150.052 29.0182 153.409 26.3316 154.026 22.7683C154.093 22.3958 154.127 22.0181 154.128 21.6395C154.149 20.4212 153.736 19.235 152.961 18.2945ZM149.003 22.5764C148.818 23.7053 147.746 24.5406 146.907 24.5406H142.474C142.599 23.8784 142.802 22.7571 142.802 22.7571C142.891 22.2412 143.148 21.7693 143.533 21.4148C143.918 21.0603 144.41 20.8429 144.931 20.7967H147.731C147.918 20.7946 148.104 20.8344 148.273 20.9132C148.443 20.9919 148.594 21.1077 148.713 21.252C148.93 21.5238 149.045 21.8635 149.037 22.2115C149.036 22.3339 149.025 22.456 149.003 22.5764Z" fill="#EC2429"/>
<path d="M164.529 16.3303H164.405C160.469 16.3303 157.29 18.7836 156.676 22.2942C156.063 25.8049 158.682 26.9525 160.981 27.9835L161.933 28.42L162.388 28.6194C163.449 29.0634 163.893 29.3456 163.777 29.9363C163.685 30.4099 163.427 30.8348 163.048 31.1338C162.67 31.4329 162.196 31.5861 161.715 31.5656C159.875 31.5656 158.449 31.5317 156.823 31.084C156.617 31.0318 156.402 31.0257 156.193 31.066C155.984 31.1064 155.787 31.1921 155.615 31.3173C155.245 31.572 154.991 31.963 154.908 32.4047L154.629 33.8345C154.596 34.0127 154.604 34.1961 154.653 34.3708C154.701 34.5455 154.788 34.7069 154.908 34.8429C155.596 35.6632 157.542 36.0395 160.981 36.0319H161.101C164.954 36.0319 168.19 33.526 168.796 30.068C169.413 26.4671 166.674 25.2931 164.258 24.2546L163.088 23.7466C162.072 23.3215 161.605 23.0505 161.726 22.441C161.811 21.9626 162.068 21.5317 162.448 21.229C162.829 20.9263 163.306 20.7726 163.792 20.7967C165.549 20.7967 166.915 20.8305 168.536 21.2783C168.731 21.3275 168.934 21.3366 169.133 21.3049C169.332 21.2732 169.522 21.2014 169.692 21.0939C170.077 20.8423 170.357 20.4581 170.478 20.014L170.734 18.5089C170.768 18.3316 170.762 18.1487 170.716 17.9741C170.67 17.7994 170.584 17.6375 170.467 17.5005C169.797 16.6953 167.908 16.3228 164.529 16.3303Z" fill="#EC2429"/>
<path d="M180.772 16.3303H180.648C176.712 16.3303 173.532 18.7836 172.915 22.2942C172.298 25.8049 174.921 26.9525 177.224 27.9797L178.176 28.42L178.631 28.6156C179.692 29.0634 180.136 29.3456 180.019 29.9363C179.929 30.4069 179.673 30.8297 179.299 31.1285C178.924 31.4272 178.455 31.5823 177.976 31.5656C176.136 31.5656 174.706 31.5317 173.085 31.084C172.88 31.0323 172.668 31.026 172.461 31.0657C172.254 31.1053 172.058 31.1899 171.888 31.3135C171.515 31.5669 171.258 31.958 171.173 32.4009C171.173 32.3633 170.895 33.8345 170.895 33.8345C170.861 34.0124 170.869 34.1956 170.916 34.3703C170.964 34.545 171.05 34.7066 171.169 34.8429C171.862 35.6632 173.803 36.0395 177.246 36.0319H177.367C181.22 36.0319 184.456 33.526 185.061 30.068C185.678 26.4633 182.935 25.2894 180.52 24.2546L179.353 23.7504C178.337 23.3215 177.871 23.0543 177.995 22.441C178.078 21.9628 178.333 21.5316 178.712 21.2286C179.091 20.9257 179.568 20.7721 180.053 20.7967C181.81 20.7967 183.18 20.8305 184.802 21.2783C184.997 21.3275 185.2 21.3366 185.398 21.3049C185.597 21.2732 185.787 21.2014 185.957 21.0939C186.341 20.8416 186.619 20.4575 186.74 20.014L186.995 18.5089C187.031 18.3319 187.025 18.1491 186.98 17.9744C186.934 17.7998 186.849 17.6377 186.732 17.5005C186.036 16.6953 184.151 16.3228 180.772 16.3303Z" fill="#EC2429"/>
<path d="M83.1218 18.2945C82.0607 17.0264 80.4201 16.3303 78.5011 16.3303H75.7017C71.9164 16.3303 68.5788 19.0169 67.9354 22.5802L66.6862 29.609C66.5222 30.3814 66.5324 31.1807 66.7159 31.9487C66.8995 32.7167 67.2518 33.4342 67.7473 34.049C68.8159 35.3283 70.4715 36.032 72.4055 36.032H72.5786C77.2256 36.032 79.5095 35.4073 79.7729 34.0151L80.025 32.5364C80.0499 32.3171 80.0238 32.095 79.9487 31.8875C79.8736 31.6799 79.7517 31.4925 79.5923 31.3398C79.4356 31.2028 79.2473 31.107 79.0443 31.061C78.8413 31.015 78.6301 31.0203 78.4296 31.0764C76.5483 31.5618 74.8249 31.5618 73.0151 31.5618C72.8285 31.5643 72.6437 31.5254 72.4739 31.448C72.3041 31.3706 72.1535 31.2566 72.033 31.1141C71.8837 30.9277 71.7773 30.7107 71.7214 30.4785C71.6654 30.2464 71.6614 30.0047 71.7094 29.7708C71.7094 29.7708 71.7884 29.3456 71.8486 29.0182H76.4203C80.2169 29.0182 83.5695 26.3316 84.1828 22.7683C84.25 22.3958 84.284 22.0181 84.2844 21.6395C84.3067 20.4218 83.8945 19.2359 83.1218 18.2945ZM79.1634 22.5764C78.9752 23.7053 77.9029 24.5406 77.0675 24.5406H72.6388L72.9624 22.7571C73.0518 22.2406 73.3095 21.7683 73.6954 21.4137C74.0814 21.0591 74.5737 20.8422 75.0959 20.7967H77.8878C78.0757 20.7943 78.2617 20.8339 78.4323 20.9127C78.6028 20.9915 78.7536 21.1074 78.8736 21.252C79.0917 21.522 79.2064 21.8608 79.1972 22.2077C79.1968 22.3314 79.1855 22.4548 79.1634 22.5764Z" fill="#EC2429"/>
<path d="M29.2544 53.762C24.2242 53.7628 19.3068 52.2718 15.124 49.4777C10.9412 46.6837 7.68085 42.7119 5.75537 38.0649C3.82988 33.4178 3.3257 28.3041 4.30659 23.3705C5.28747 18.4368 7.70936 13.9049 11.266 10.3477C14.8226 6.7906 19.3542 4.36804 24.2877 3.38642C29.2211 2.40481 34.3349 2.90823 38.9823 4.83303C43.6296 6.75783 47.6018 10.0175 50.3965 14.1999C53.1912 18.3823 54.6829 23.2996 54.6829 28.3297C54.6834 31.6694 54.026 34.9764 52.7484 38.062C51.4707 41.1475 49.5977 43.9512 47.2364 46.3128C44.8751 48.6745 42.0717 50.5479 38.9863 51.826C35.901 53.1042 32.594 53.762 29.2544 53.762Z" fill="white"/>
<path d="M43.3835 16.2137H34.6727C33.0811 16.2137 32.8553 16.8572 32.8553 17.8392C32.8553 17.8392 32.8553 31.9871 32.8553 32.0021C32.75 35.2494 31.5422 36.2841 29.2318 36.2841C26.8651 36.2841 25.6572 35.1929 25.6046 31.7425C25.6046 29.8235 25.6046 17.8392 25.6046 17.8392C25.6046 16.8572 25.3788 16.2137 23.7872 16.2137H15.084V33.0595C15.084 36.7921 15.8064 38.3649 17.3416 39.9678C19.7347 42.4512 23.9038 43.501 29.2356 43.501C34.5674 43.501 38.744 42.4512 41.1296 39.9678C42.6685 38.3649 43.3872 36.7921 43.3872 33.0595V16.2137H43.3835Z" fill="#E32119"/>
<path opacity="0.55" d="M33.2018 0.248407C32.5654 0.1848 31.9262 0.154657 31.2866 0.158102C32.6576 0.20023 34.023 0.353753 35.3692 0.617155C49.8444 3.43544 59.112 18.0612 56.0642 33.2475C53.0163 48.4339 38.8196 58.4841 24.3444 55.6658C23.6972 55.5417 23.065 55.3912 22.4404 55.2181C25.0008 56.0019 27.6645 56.3964 30.3422 56.3883C32.7037 56.3824 35.0565 56.0995 37.3521 55.5454C41.6653 54.5345 45.6903 52.5513 49.1199 49.7471C52.5494 46.943 55.2927 43.3921 57.1403 39.3657C58.7149 35.8322 59.5265 32.0062 59.5221 28.1377C59.5221 12.5826 47.3346 1.42238 33.2018 0.240882" fill="#007BA5"/>
<path opacity="0.45" d="M0.0671128 26.0419C-0.993976 41.3374 10.8323 54.6386 26.9556 56.0346C26.0804 55.9549 25.21 55.8293 24.348 55.6583C9.86902 52.8401 0.60142 38.2294 3.65299 23.028C6.66694 7.93945 20.6944 -2.06188 35.0718 0.560742C33.8549 0.323809 32.6247 0.161707 31.3881 0.0753504C14.9826 -1.0497 1.1282 10.5771 0.0671128 26.0419Z" fill="#007BA5"/>
<path d="M35.3696 0.617186C20.8944 -2.2011 6.69011 7.8341 3.64607 23.0355C0.60202 38.2369 9.86962 52.8476 24.3411 55.6659C38.8125 58.4842 53.0206 48.4452 56.0609 33.2476C59.1011 18.0499 49.8448 3.43547 35.3696 0.617186ZM29.2552 53.7619C24.225 53.7627 19.3076 52.2717 15.1247 49.4777C10.9419 46.6836 7.68163 42.7119 5.75615 38.0648C3.83066 33.4177 3.32648 28.304 4.30737 23.3704C5.28825 18.4368 7.71014 13.9048 11.2668 10.3477C14.8234 6.79053 19.355 4.36796 24.2884 3.38635C29.2219 2.40473 34.3357 2.90816 38.9831 4.83296C43.6304 6.75775 47.6026 10.0175 50.3973 14.1999C53.192 18.3823 54.6837 23.2995 54.6837 28.3297C54.6842 31.6693 54.0268 34.9763 52.7491 38.0619C51.4715 41.1475 49.5985 43.9511 47.2372 46.3128C44.8759 48.6744 42.0725 50.5478 38.9871 51.8259C35.9018 53.1041 32.5948 53.7619 29.2552 53.7619Z" fill="#007BA5"/>
</g>
<defs>
<clipPath id="clip0_3157_376">
<rect width="187" height="56.3882" fill="white"/>
</clipPath>
</defs>
</svg>
