<svg width="171" height="58" viewBox="0 0 171 58" fill="none" xmlns="http://www.w3.org/2000/svg">
<circle cx="152" cy="39" r="19" fill="#CCB6D8"/>
<circle cx="37" cy="29" r="29" fill="#CCB6D8"/>
<path d="M18.864 30.932C20.4 31.292 21.588 32.036 22.428 33.164C23.292 34.268 23.724 35.552 23.724 37.016C23.724 39.248 22.98 40.976 21.492 42.2C20.028 43.4 17.916 44 15.156 44H1.8V18.512H14.796C17.388 18.512 19.428 19.076 20.916 20.204C22.404 21.332 23.148 22.976 23.148 25.136C23.148 26.624 22.752 27.884 21.96 28.916C21.192 29.924 20.16 30.596 18.864 30.932ZM9.792 28.448H12.888C13.608 28.448 14.136 28.304 14.472 28.016C14.832 27.728 15.012 27.284 15.012 26.684C15.012 26.06 14.832 25.604 14.472 25.316C14.136 25.004 13.608 24.848 12.888 24.848H9.792V28.448ZM13.428 37.592C14.148 37.592 14.676 37.46 15.012 37.196C15.372 36.908 15.552 36.452 15.552 35.828C15.552 34.604 14.844 33.992 13.428 33.992H9.792V37.592H13.428ZM37.0294 18.512C39.6934 18.512 42.0214 19.052 44.0134 20.132C46.0294 21.212 47.5774 22.712 48.6574 24.632C49.7374 26.552 50.2774 28.736 50.2774 31.184C50.2774 33.608 49.7374 35.792 48.6574 37.736C47.5774 39.68 46.0294 41.216 44.0134 42.344C42.0214 43.448 39.6934 44 37.0294 44H26.4094V18.512H37.0294ZM36.3094 36.872C38.1094 36.872 39.5374 36.38 40.5934 35.396C41.6494 34.412 42.1774 33.008 42.1774 31.184C42.1774 29.36 41.6494 27.956 40.5934 26.972C39.5374 25.988 38.1094 25.496 36.3094 25.496H34.4014V36.872H36.3094ZM61.1553 24.884V28.016H69.0753V34.028H61.1553V37.628H70.1553V44H53.1633V18.512H70.1553V24.884H61.1553ZM109.92 18.512V44H101.964V31.292L98.0404 44H91.2004L87.2764 31.292V44H79.2844V18.512H89.0764L94.6924 33.812L100.164 18.512H109.92ZM144.163 18.512V44H136.207V31.292L132.283 44H125.443L121.519 31.292V44H113.527V18.512H123.319L128.935 33.812L134.407 18.512H144.163ZM155.761 18.512V44H147.769V18.512H155.761Z" fill="#1B1B1B"/>
</svg>
