<svg width="171" height="58" viewBox="0 0 171 58" fill="none" xmlns="http://www.w3.org/2000/svg">
<path d="M152 58C162.493 58 171 49.4934 171 39C171 28.5066 162.493 20 152 20C141.507 20 133 28.5066 133 39C133 49.4934 141.507 58 152 58Z" fill="#D4AF37"/>
<path d="M37 58C53.0163 58 66 45.0163 66 29C66 12.9837 53.0163 0 37 0C20.9837 0 8 12.9837 8 29C8 45.0163 20.9837 58 37 58Z" fill="#D4AF37"/>
<path d="M18.8648 30.9317C20.4008 31.2917 21.5888 32.0357 22.4288 33.1637C23.2928 34.2677 23.7248 35.5517 23.7248 37.0157C23.7248 39.2477 22.9808 40.9757 21.4928 42.1997C20.0288 43.3997 17.9168 43.9997 15.1568 43.9997H1.80078V18.5117H14.7968C17.3888 18.5117 19.4288 19.0757 20.9168 20.2037C22.4048 21.3317 23.1488 22.9757 23.1488 25.1357C23.1488 26.6237 22.7528 27.8837 21.9608 28.9157C21.1928 29.9237 20.1608 30.5957 18.8648 30.9317ZM9.79278 28.4477H12.8888C13.6088 28.4477 14.1368 28.3037 14.4728 28.0157C14.8328 27.7277 15.0128 27.2837 15.0128 26.6837C15.0128 26.0597 14.8328 25.6037 14.4728 25.3157C14.1368 25.0037 13.6088 24.8477 12.8888 24.8477H9.79278V28.4477ZM13.4288 37.5917C14.1488 37.5917 14.6768 37.4597 15.0128 37.1957C15.3728 36.9077 15.5528 36.4517 15.5528 35.8277C15.5528 34.6037 14.8448 33.9917 13.4288 33.9917H9.79278V37.5917H13.4288ZM37.0302 18.5117C39.6942 18.5117 42.0222 19.0517 44.0142 20.1317C46.0302 21.2117 47.5782 22.7117 48.6582 24.6317C49.7382 26.5517 50.2782 28.7357 50.2782 31.1837C50.2782 33.6077 49.7382 35.7917 48.6582 37.7357C47.5782 39.6797 46.0302 41.2157 44.0142 42.3437C42.0222 43.4477 39.6942 43.9997 37.0302 43.9997H26.4102V18.5117H37.0302ZM36.3102 36.8717C38.1102 36.8717 39.5382 36.3797 40.5942 35.3957C41.6502 34.4117 42.1782 33.0077 42.1782 31.1837C42.1782 29.3597 41.6502 27.9557 40.5942 26.9717C39.5382 25.9877 38.1102 25.4957 36.3102 25.4957H34.4022V36.8717H36.3102ZM61.1561 24.8837V28.0157H69.0761V34.0277H61.1561V37.6277H70.1561V43.9997H53.1641V18.5117H70.1561V24.8837H61.1561ZM109.921 18.5117V43.9997H101.965V31.2917L98.0412 43.9997H91.2012L87.2772 31.2917V43.9997H79.2852V18.5117H89.0772L94.6932 33.8117L100.165 18.5117H109.921ZM144.164 18.5117V43.9997H136.208V31.2917L132.284 43.9997H125.444L121.52 31.2917V43.9997H113.528V18.5117H123.32L128.936 33.8117L134.408 18.5117H144.164ZM155.762 18.5117V43.9997H147.77V18.5117H155.762Z" fill="#1B1B1B"/>
</svg>
