<svg width="122" height="80" viewBox="0 0 122 80" fill="none" xmlns="http://www.w3.org/2000/svg">
<path opacity="0.11" d="M61.0768 80C92.2499 80 117.521 68.6135 117.521 54.5674C117.521 40.5213 92.2499 29.1348 61.0768 29.1348C29.9036 29.1348 4.63281 40.5213 4.63281 54.5674C4.63281 68.6135 29.9036 80 61.0768 80Z" fill="#020213"/>
<path d="M60.9984 74.9107C94.4258 74.9107 121.524 63.8738 121.524 50.259C121.524 36.6443 94.4258 25.6074 60.9984 25.6074C27.5709 25.6074 0.472656 36.6443 0.472656 50.259C0.472656 63.8738 27.5709 74.9107 60.9984 74.9107Z" fill="#FBE6C0"/>
<path d="M60.9982 73.885C94.2271 73.885 121.164 63.077 121.164 49.7447C121.164 36.4124 94.2271 25.6045 60.9982 25.6045C27.7694 25.6045 0.832031 36.4124 0.832031 49.7447C0.832031 63.077 27.7694 73.885 60.9982 73.885Z" fill="#FBE6C0"/>
<path d="M60.998 67.5678C84.4669 67.5678 103.492 59.8194 103.492 50.2614C103.492 40.7034 84.4669 32.9551 60.998 32.9551C37.5292 32.9551 18.5039 40.7034 18.5039 50.2614C18.5039 59.8194 37.5292 67.5678 60.998 67.5678Z" fill="#FBE6C0"/>
<path opacity="0.11" d="M32.7031 53.6188C32.7031 53.6188 60.5966 69.9055 67.3344 71.3715C74.0722 72.8374 83.6211 71.9603 91.1058 67.9964C98.5906 64.0324 115.9 49.9493 110.321 43.9336C104.743 37.9179 89.6306 34.6885 89.6306 34.6885L32.7031 53.6188Z" fill="#020213"/>
<path d="M48.9715 2.74286C48.9715 2.74286 43.2503 4.76978 38.8369 5.84213C34.4236 6.91448 31.4452 8.1077 31.0887 9.41869C30.7323 10.7297 31.4452 10.491 30.2519 11.9229C29.0587 13.3548 26.5576 17.6473 26.0803 20.2692C25.603 22.8912 24.0534 31.1167 24.0534 31.1167C24.0534 31.1167 23.4552 44.4715 23.5761 46.4984C23.697 48.5253 22.5037 48.764 24.5307 49.8363C26.5576 50.9087 32.1611 53.1742 37.4082 55.6784C42.6552 58.1827 44.084 59.7323 46.4673 60.8046C48.8507 61.877 55.6505 65.5744 59.3448 67.1241C63.0391 68.6737 67.6911 69.9847 70.3162 69.9847C72.9413 69.9847 74.6087 70.5828 74.9651 69.7491C75.3216 68.9154 81.2846 67.7191 83.9065 66.2903C86.5285 64.8616 91.537 62.4751 93.6848 60.9255C95.8325 59.3759 97.6208 56.633 99.5269 55.3189C101.433 54.0048 103.224 51.6246 103.224 51.6246L105.97 48.1689C105.97 48.1689 106.925 47.0965 107.046 46.5015C107.167 45.9064 105.97 44.3444 105.97 44.3444L100.128 38.8587L99.654 37.6686C99.654 37.6686 95.8357 32.6601 94.0474 31.47C92.2591 30.2799 91.069 31.1136 90.1144 29.9204C89.1598 28.7272 88.8034 26.8211 88.8034 26.8211L87.4893 24.0782L84.5109 22.1722L83.6741 20.5017L82.484 18.3539L80.6957 17.1638L79.9798 15.8528L79.0066 14.5449C79.0066 14.5449 79.8403 15.7381 77.8134 13.2339L75.7864 10.7297L74.5963 10.1346L73.2822 9.18004L71.6148 7.51264L69.8266 6.79671L68.9897 6.19855L67.7996 4.41026L66.7273 2.9815C66.0366 2.34809 65.2248 1.86103 64.3408 1.54964L61.7189 0.715931C61.7189 0.715931 61.598 0.477289 60.0483 0.238645C59.2219 0.0879741 58.3841 0.00813485 57.5441 0C57.1877 0 55.5172 0.238645 55.5172 0.238645L51.4603 1.10644C50.8384 1.23946 50.2636 1.53702 49.7959 1.96804L48.9715 2.74286Z" fill="#D4AF37"/>
<path d="M40.623 9.7728C40.623 9.7728 32.7539 10.4856 32.7539 11.5611C32.7539 12.6365 44.7977 32.7818 49.3288 37.6725C53.86 42.5631 63.8737 53.8878 65.7829 56.5098C67.8721 59.3523 70.1842 62.0241 72.6973 64.4998C74.7243 66.4058 75.558 67.2426 76.0353 67.4813C76.5125 67.7199 78.1831 69.2695 78.899 69.1487C79.6149 69.0278 81.8774 67.3604 82.4755 67.1217C83.0737 66.8831 85.5748 66.4058 85.5748 66.4058L87.0067 65.8108L88.3177 65.2157C89.6287 64.3789 89.9851 64.6175 90.2237 63.9016C90.378 63.3591 90.4582 62.7982 90.4624 62.2342L89.9851 61.1618L87.7195 59.9686C87.7195 59.9686 88.1968 60.5637 86.8858 59.014C85.5748 57.4644 85.5748 57.5822 84.9798 57.3466C84.3847 57.1111 83.6533 56.7361 83.6533 56.7361L81.9859 55.9024L81.2699 54.83L79.6242 53.1719L78.4341 51.5014L77.1076 50.5375L76.2739 49.7007L74.4856 48.1511L74.1292 47.0787L73.4257 46.0188L72.8306 45.182C72.4574 44.6787 72.1743 44.1146 71.9938 43.5146L71.2562 42.2036C70.5912 41.6889 69.872 41.2482 69.1115 40.8895C68.6395 40.5332 68.2007 40.1348 67.8005 39.6994C67.5711 39.3399 67.2271 38.7603 67.2271 38.7603L66.2756 37.4493L65.4388 36.377L64.351 35.0412C64.351 35.0412 63.1578 34.3283 62.8014 33.7302C62.511 33.2424 62.1496 32.8005 61.729 32.4192L61.2517 31.9419L57.6752 26.4562L55.8869 24.0728L50.0447 18.5871L46.9455 15.0106L45.6345 12.6272L44.4413 10.4794L43.6076 9.7666L40.623 9.7728Z" fill="#020213"/>
<path d="M46.3475 7.03376C46.3475 7.03376 48.8517 11.3263 50.0449 13.4709C51.2381 15.6156 54.5729 18.718 56.4821 21.34C58.3913 23.962 60.5359 26.7048 61.131 28.0189C61.7261 29.333 62.0856 28.7318 64.472 31.9519C66.8585 35.172 67.4504 35.5285 67.8099 36.1266C68.1695 36.7248 71.6252 41.0142 72.1024 41.3706C72.5797 41.727 76.0354 44.5907 77.5851 46.5123C79.1347 48.4338 80.6843 50.4453 81.0438 50.9226C81.4033 51.3998 82.4757 52.2335 82.8321 52.7108C83.1885 53.1881 83.7867 54.0218 83.7867 54.0218C84.1108 54.4121 84.4697 54.772 84.859 55.0973C85.3278 55.4273 85.853 55.6689 86.4087 55.8101C87.1246 56.0488 87.9583 56.2874 87.9583 56.2874C88.3234 56.6102 88.7236 56.8909 89.1515 57.1242C89.5364 57.3177 89.8965 57.5571 90.2239 57.837L90.9398 58.6738C90.9398 58.6738 91.5349 59.864 91.6558 60.2235C91.7766 60.583 91.7735 62.3682 92.7281 61.6522C93.6827 60.9363 95.2323 59.6253 95.5887 59.3898C95.9451 59.1542 96.4255 58.4352 97.0206 58.1965C97.6157 57.9579 97.8543 58.4352 98.2138 57.837C98.5733 57.2389 97.8543 58.0757 98.5702 57.242C99.2862 56.4083 98.9297 54.8586 99.5248 55.3328L100.12 55.8101C100.34 55.6877 100.53 55.517 100.675 55.3109C100.82 55.1048 100.916 54.8686 100.957 54.62C101.019 54.0605 100.978 53.4941 100.836 52.9495C100.096 52.2121 99.299 51.5344 98.4525 50.9226C97.3801 50.2066 96.066 49.252 96.066 49.252L92.0215 45.784L90.2332 43.6362L86.1793 38.9873L82.1038 35.6648L80.6874 33.4953C80.3484 33.157 80.0296 32.7989 79.7328 32.423C79.3733 31.9457 75.5581 28.9642 75.5581 28.9642L74.8453 28.1305C74.8453 28.1305 75.9176 28.3691 73.7698 25.9858C71.622 23.6025 70.3266 22.2946 70.3266 22.2946L69.7067 21.2222L65.4142 17.1684C65.4142 17.1684 61.3604 14.7819 60.4089 12.0391C59.9674 10.6997 59.4501 9.38661 58.8592 8.10611L57.071 6.31783L56.3581 5.24548L55.1649 5.00684H53.733L52.5398 5.24548C52.2188 5.30884 51.9013 5.38849 51.5883 5.48412C51.2288 5.60189 49.0841 5.95831 49.0841 5.95831C49.0841 5.95831 46.2266 6.31783 46.3475 7.03376Z" fill="#020213"/>
<path d="M60.1783 1.55343C60.417 2.03072 61.012 3.46258 61.012 3.46258L61.2507 4.29629L60.5347 6.56186L60.417 7.39556L61.012 8.22927L61.9573 9.54336L63.5069 11.6881L64.9357 12.6426L66.3676 14.31L68.0381 16.337L69.5877 17.5302L71.4938 18.8412L74.8348 22.0613L76.1458 23.8496L78.8886 27.0697L79.4837 27.9034L81.272 29.574L82.3443 31.7187L85.9209 34.8179L91.1772 39.6993L92.7269 41.844C92.7269 41.844 93.4428 43.155 94.0379 43.6323L94.636 44.1095C94.636 44.1095 95.1133 44.1095 95.947 45.3028C96.7807 46.496 97.4967 47.6861 97.4967 47.6861C97.4967 47.6861 98.0917 48.5229 98.6899 48.5229C99.288 48.5229 98.569 47.9247 99.2849 48.5229C99.7554 48.9513 100.122 49.4813 100.357 50.0725L101.433 51.3835L100.835 52.9332C100.835 52.9332 101.578 52.8712 102.173 52.8805C102.809 52.1708 103.221 51.6222 103.221 51.6222L105.967 48.1727C105.967 48.1727 106.922 47.1003 107.042 46.5053C107.163 45.9102 105.967 44.3482 105.967 44.3482L100.125 38.8625L99.6507 37.6724C99.6507 37.6724 95.8323 32.6639 94.0441 31.4738C92.2558 30.2837 91.0657 31.1174 90.1111 29.9242C89.1565 28.731 88.8001 26.8249 88.8001 26.8249L87.486 24.082L84.5076 22.176L83.6708 20.5055L82.4807 18.3577L80.6924 17.1676L79.9765 15.8566L79.0033 14.5487C79.0033 14.5487 79.837 15.7419 77.8101 13.2377L75.7831 10.7335L74.593 10.1384L73.2789 9.18384L71.6115 7.51643L69.8233 6.8005L68.9864 6.20234L67.7963 4.41406L66.7209 2.98529C66.0315 2.35169 65.2207 1.86458 64.3375 1.55343L61.7156 0.719727C61.7156 0.719727 59.9397 1.07614 60.1783 1.55343Z" fill="#020213"/>
<path d="M39.9078 38.1458C39.9078 38.1458 38.7177 40.1727 39.195 41.1242C39.6722 42.0756 39.79 43.272 40.5059 43.3897C41.2598 43.4538 42.0177 43.4538 42.7715 43.3897C42.9732 43.3882 43.1724 43.3453 43.3568 43.2638C43.5413 43.1822 43.707 43.0637 43.8439 42.9155C44.1746 42.4902 44.4179 42.0035 44.5598 41.4837C44.6392 41.0512 44.6786 40.6124 44.6776 40.1727C44.6776 40.1727 44.9162 38.7408 44.6776 38.3844C44.4389 38.028 43.3666 37.5476 43.3666 37.5476L41.9378 37.0703C41.2275 37.3613 40.5475 37.7215 39.9078 38.1458Z" fill="#020213"/>
<path d="M45.156 44.1162C45.156 44.1162 44.3222 45.0708 44.9173 45.3094C45.3387 45.4527 45.7882 45.4931 46.2283 45.4272C46.9442 43.9984 46.5878 43.2825 46.5878 43.2825C45.9928 42.7959 45.156 44.1162 45.156 44.1162Z" fill="#020213"/>
<path d="M41.7013 48.6453C41.7013 48.6453 40.9854 47.5729 40.3872 47.6907C39.7891 47.8084 39.1971 48.6453 39.1971 48.6453L38.0039 49.8385C38.0039 50.9108 38.1217 51.3881 38.3603 51.8654C38.599 52.3427 38.9585 52.9378 38.9585 52.9378L39.91 53.7715L40.8645 53.8923L42.535 55.6806L43.846 56.037L45.5165 55.9193C45.5165 55.9193 45.9938 54.726 45.9938 54.2487C45.9938 53.7715 46.1116 54.726 45.9938 53.7715C45.9361 53.0619 45.7324 52.3718 45.3957 51.7445C45.157 51.3881 44.9184 51.3881 44.562 51.0317C44.2056 50.6753 43.846 50.6722 43.251 50.4335C42.6559 50.1949 41.94 49.9562 41.94 49.9562L41.7013 48.6453Z" fill="#020213"/>
<path d="M53.6219 53.4164L52.3078 54.6097C52.3078 54.6097 51.5949 54.9661 51.4741 55.4434C51.3532 55.9207 51.2354 56.5157 51.2354 56.5157C51.4547 57.0254 51.7357 57.5063 52.0722 57.9476C52.0722 57.9476 52.785 58.5426 52.5464 58.9022C52.3226 59.2856 52.1238 59.6832 51.9513 60.0923H50.9968C50.6404 60.6904 50.879 61.7628 50.879 61.7628C50.879 61.7628 52.0722 63.4333 53.1446 64.0284C54.2169 64.6234 56.8389 65.11 57.31 64.8621C57.651 64.6543 57.9378 64.3686 58.1468 64.0284L58.9805 62.5965C58.9805 62.5965 59.3369 61.6419 59.4578 61.1677C59.576 60.6978 59.576 60.2058 59.4578 59.7359C59.2901 59.3616 59.0899 59.0028 58.8596 58.6635L58.2646 57.7089L57.31 58.0654C56.2376 58.1873 55.7614 57.9497 55.8812 57.3525C55.999 56.7544 56.8327 55.5611 56.9536 54.9661C57.0744 54.371 58.5032 54.371 56.5941 53.4164C54.6849 52.4619 53.6219 53.4164 53.6219 53.4164Z" fill="#020213"/>
<path d="M61.6093 59.6143C61.6093 59.6143 60.537 59.8529 60.4192 60.2124C60.3014 60.5719 61.3707 62.01 61.3707 62.01H62.3253L63.159 61.0554L61.6093 59.6143Z" fill="#020213"/>
<path d="M31.444 49.24C31.444 49.24 30.728 49.8382 30.9667 50.4332C31.1306 50.8056 31.428 51.103 31.8004 51.2669L33.35 51.1491C33.5302 50.9105 33.6153 50.6133 33.5887 50.3154V49.7173C33.5887 49.7173 32.1599 48.8836 31.444 49.24Z" fill="#020213"/>
<path d="M33.8283 46.0253C33.8283 46.0253 33.3541 46.9799 33.4719 47.4541C33.5897 47.9283 33.7106 48.886 34.9038 48.886C36.097 48.886 36.6921 47.8136 36.6921 47.4541C36.6921 47.0946 36.2148 46.7413 36.0939 46.3817C35.973 46.0222 34.5443 45.7867 33.8283 46.0253Z" fill="#020213"/>
<path d="M37.8796 40.5405C37.5263 40.5064 36.5686 40.6614 36.8073 41.3742C37.0459 42.087 38.0005 42.5674 38.2391 42.0901C38.4778 41.6129 39.0728 40.6614 37.8796 40.5405Z" fill="#020213"/>
<path d="M24.0535 31.1212C24.0535 31.1212 22.9811 30.2875 23.0989 31.2389C23.2167 32.1904 24.1712 33.2659 24.6485 33.0272C25.1258 32.7886 25.7209 32.3144 25.7209 31.7162C25.7209 31.1181 24.0535 31.1212 24.0535 31.1212Z" fill="#020213"/>
<path d="M26.0786 20.2715L24.4081 20.7488C24.4081 20.7488 23.9308 22.1806 24.2903 23.0143C24.6498 23.848 24.7676 24.2013 25.124 24.2013C25.4804 24.2013 26.5559 24.3191 26.5559 24.3191L28.1055 23.1259V22.0536C28.1055 22.0536 27.2718 19.5524 26.0786 20.2715Z" fill="#020213"/>
<path d="M48.4683 53.9677C48.1026 54.1692 48.2979 54.727 48.5365 55.071C48.7752 55.4151 49.0479 55.7467 49.4322 55.7095C49.9157 55.6661 50.1048 55.0494 50.08 54.5628C50.0834 54.2269 49.9743 53.8996 49.77 53.633C49.6667 53.5049 49.5218 53.417 49.3604 53.3848C49.199 53.3525 49.0314 53.3778 48.8867 53.4563L48.4683 53.9677Z" fill="#020213"/>
<path d="M45.0495 56.1382C44.9304 56.1617 44.8176 56.2097 44.7181 56.2794C44.6187 56.349 44.535 56.4386 44.4722 56.5425C44.4095 56.6464 44.3692 56.7622 44.3538 56.8826C44.3385 57.003 44.3485 57.1253 44.3831 57.2416C44.4299 57.3538 44.5006 57.4546 44.5902 57.5369C44.6797 57.6192 44.7861 57.681 44.9019 57.7182C45.0178 57.7553 45.1403 57.7668 45.261 57.752C45.3817 57.7371 45.4978 57.6962 45.6012 57.6321C45.5872 57.4526 45.5872 57.2723 45.6012 57.0928C45.7092 57.1828 45.8437 57.2351 45.9841 57.2415C46.1246 57.248 46.2633 57.2084 46.3792 57.1287C46.495 57.049 46.5817 56.9336 46.6259 56.8001C46.67 56.6666 46.6694 56.5223 46.6239 56.3893C46.8247 56.4281 47.0136 56.5138 47.1751 56.6392C47.3367 56.7647 47.4664 56.9265 47.5537 57.1114C47.633 56.6433 47.6055 56.1634 47.4731 55.7074C47.4007 55.4811 47.2552 55.2853 47.0594 55.1507C46.8636 55.016 46.6287 54.9502 46.3915 54.9636C46.1807 55.0008 45.9917 55.1186 45.7871 55.1713C45.493 55.2059 45.1966 55.2173 44.9007 55.2054C44.5908 55.2301 44.2809 55.3944 44.2344 55.6888L45.0495 56.1382Z" fill="#020213"/>
<path d="M47.6305 49.0657H48.8919C48.9102 49.0634 48.9288 49.0649 48.9464 49.0702C48.964 49.0756 48.9803 49.0846 48.9942 49.0967C49.0067 49.1329 49.0067 49.1722 48.9942 49.2083C48.9981 49.2589 49.0126 49.3082 49.0369 49.3528C49.0611 49.3973 49.0946 49.4363 49.135 49.467C49.1754 49.4978 49.2219 49.5196 49.2713 49.5311C49.3208 49.5426 49.3721 49.5435 49.4219 49.5337C49.5219 49.5078 49.6156 49.4621 49.6976 49.3993C49.7796 49.3364 49.8482 49.2578 49.8992 49.168C50.0325 49.1928 50.0232 49.3819 50.0542 49.5151C50.0813 49.6106 50.1391 49.6944 50.2187 49.7538C50.2982 49.8132 50.395 49.8447 50.4943 49.8436C51.3094 49.8436 51.3961 48.8302 50.9003 48.4118C50.3679 48.0025 49.7933 47.6514 49.1864 47.3642C47.7483 46.6638 46.7348 49.0688 47.6305 49.0657Z" fill="#020213"/>
<path d="M61.4551 64.2158C61.3415 64.2129 61.228 64.2243 61.1173 64.2499C61.0407 64.2828 60.9739 64.3348 60.9234 64.4011C60.8729 64.4673 60.8404 64.5455 60.829 64.628C60.8073 64.7922 60.8136 64.9588 60.8476 65.1208C60.847 65.1798 60.8595 65.2382 60.8842 65.2917C60.9088 65.3453 60.945 65.3928 60.9902 65.4307C61.0642 65.461 61.1428 65.4788 61.2226 65.4834C61.4923 65.533 61.6751 65.7934 61.92 65.9111C62.2409 66.03 62.5947 66.0245 62.9117 65.8956C64.2351 65.4927 64.3653 64.5257 63.5316 63.5216C63.2217 63.159 62.8838 62.9451 62.4189 63.1869C61.8611 63.4658 62.1214 64.1662 61.4551 64.2158Z" fill="#020213"/>
<path d="M66.3001 63.1529C66.1898 63.1226 66.0722 63.1332 65.9691 63.1828C65.8661 63.2323 65.7844 63.3175 65.7391 63.4225C65.6547 63.636 65.6239 63.8669 65.6492 64.0951C65.6227 64.1933 65.6221 64.2967 65.6477 64.3952C65.6733 64.4937 65.7241 64.5838 65.7951 64.6567C65.8661 64.7296 65.9549 64.7827 66.0527 64.8109C66.1504 64.839 66.2539 64.8412 66.3527 64.8172H66.8176C66.8944 64.8202 66.9708 64.8054 67.0408 64.7738C67.2081 64.6777 67.2019 64.4329 67.3166 64.2779C67.4313 64.123 67.5956 64.1013 67.6978 63.968C67.7332 63.9079 67.7561 63.8413 67.7652 63.7721C67.7742 63.703 67.7691 63.6327 67.7503 63.5656C67.7315 63.4984 67.6993 63.4357 67.6557 63.3813C67.612 63.3269 67.5578 63.2819 67.4964 63.249C67.2403 63.1292 66.9556 63.0841 66.6751 63.1188" fill="#020213"/>
<path d="M57.4744 52.0322L58.1345 52.1685C58.2493 52.2057 58.373 52.2057 58.4878 52.1685C58.571 52.1234 58.6398 52.0557 58.6862 51.9733C59.275 51.09 58.9961 49.5465 57.682 49.7759C56.526 49.9804 56.1913 51.7656 57.4744 52.0322Z" fill="#020213"/>
<path d="M51.352 53.6416C51.2758 53.6521 51.2044 53.6848 51.1466 53.7354C51.0888 53.7861 51.047 53.8526 51.0266 53.9267C50.9898 54.0758 50.9824 54.2305 51.0049 54.3823C51.0012 54.4062 51.0036 54.4306 51.012 54.4533C51.0203 54.476 51.0343 54.4962 51.0525 54.512C51.0708 54.5278 51.0928 54.5387 51.1165 54.5437C51.1401 54.5486 51.1646 54.5475 51.1877 54.5404H51.4977C51.6344 54.5502 51.7717 54.5312 51.9006 54.4846C51.9629 54.4602 52.0163 54.4176 52.0539 54.3623C52.0915 54.307 52.1116 54.2416 52.1113 54.1747C52.0865 53.9484 51.8014 53.8647 51.5782 53.8647" fill="#020213"/>
<path d="M47.4394 59.4204C47.4022 59.6528 47.3805 59.9348 47.5634 60.0867C47.6966 60.1952 47.9229 60.2386 47.9291 60.3966C47.9204 60.4555 47.907 60.5135 47.8888 60.5702C47.8912 60.6426 47.9113 60.7133 47.9476 60.776C47.9838 60.8387 48.0349 60.8915 48.0965 60.9297C48.4496 61.2131 48.8685 61.4028 49.3145 61.4814C50.1606 61.6301 50.0955 61.001 50.0893 60.3997C50.0893 59.8945 50.2195 59.3956 49.863 58.9679C49.1254 58.0939 47.6285 58.2209 47.4394 59.4204Z" fill="#020213"/>
</svg>
