<svg width="122" height="82" viewBox="0 0 122 82" fill="none" xmlns="http://www.w3.org/2000/svg">
<path d="M121.133 1H0.820312V81H121.133V1Z" fill="#FBE6C0" stroke="#D4AF37" stroke-width="0.378898" stroke-linejoin="round"/>
<path d="M121.133 1H0.820312V46.625H121.133V1Z" fill="#FBE6C0" stroke="#D4AF37" stroke-width="0.378898" stroke-linejoin="round"/>
<path d="M109.12 35.7259C111.373 35.7259 113.17 33.9557 113.134 31.7721C113.099 29.5885 111.244 27.8184 108.991 27.8184C106.738 27.8184 104.941 29.5885 104.977 31.7721C105.012 33.9557 106.867 35.7259 109.12 35.7259Z" fill="#020213" stroke="#D4AF37" stroke-width="0.378898" stroke-linejoin="round"/>
<path d="M96.7614 30.1257C97.0632 30.1257 97.3079 29.8895 97.3079 29.598C97.3079 29.3066 97.0632 29.0703 96.7614 29.0703C96.4595 29.0703 96.2148 29.3066 96.2148 29.598C96.2148 29.8895 96.4595 30.1257 96.7614 30.1257Z" fill="#D4AF37"/>
<path d="M99.4485 29.598C99.4485 29.4936 99.4165 29.3916 99.3564 29.3048C99.2964 29.2181 99.211 29.1504 99.1111 29.1105C99.0113 29.0705 98.9014 29.0601 98.7954 29.0805C98.6894 29.1008 98.592 29.1511 98.5155 29.2249C98.4391 29.2987 98.3871 29.3927 98.366 29.4951C98.3449 29.5974 98.3557 29.7035 98.3971 29.8C98.4384 29.8964 98.5085 29.9788 98.5984 30.0368C98.6882 30.0948 98.7939 30.1257 98.902 30.1257C99.0466 30.1245 99.1848 30.0685 99.2871 29.9698C99.3893 29.8711 99.4473 29.7376 99.4485 29.598Z" fill="#D4AF37"/>
<path d="M101.589 29.598C101.589 29.4936 101.557 29.3916 101.497 29.3048C101.437 29.2181 101.352 29.1504 101.252 29.1105C101.152 29.0705 101.042 29.0601 100.936 29.0805C100.83 29.1008 100.733 29.1511 100.656 29.2249C100.58 29.2987 100.528 29.3927 100.507 29.4951C100.486 29.5974 100.496 29.7035 100.538 29.8C100.579 29.8964 100.649 29.9788 100.739 30.0368C100.829 30.0948 100.935 30.1257 101.043 30.1257C101.187 30.1245 101.325 30.0685 101.428 29.9698C101.53 29.8711 101.588 29.7376 101.589 29.598Z" fill="#D4AF37"/>
<path d="M97.304 31.7464C97.304 31.6419 97.2718 31.5397 97.2115 31.4528C97.1513 31.3659 97.0656 31.2983 96.9655 31.2585C96.8653 31.2187 96.7552 31.2085 96.6491 31.2292C96.5429 31.25 96.4455 31.3007 96.3693 31.375C96.2931 31.4492 96.2414 31.5437 96.2209 31.6464C96.2003 31.749 96.2118 31.8553 96.2539 31.9516C96.296 32.048 96.3668 32.1301 96.4574 32.1875C96.5479 32.2449 96.654 32.2751 96.7623 32.2741C96.9064 32.2729 97.0442 32.2168 97.1456 32.1179C97.2471 32.0191 97.304 31.8856 97.304 31.7464Z" fill="#D4AF37"/>
<path d="M99.4485 31.7465C99.4485 31.6421 99.4165 31.5401 99.3564 31.4533C99.2964 31.3665 99.211 31.2989 99.1111 31.2589C99.0113 31.219 98.9014 31.2085 98.7954 31.2289C98.6894 31.2492 98.592 31.2995 98.5155 31.3733C98.4391 31.4471 98.3871 31.5411 98.366 31.6435C98.3449 31.7459 98.3557 31.852 98.3971 31.9484C98.4384 32.0448 98.5085 32.1272 98.5984 32.1852C98.6882 32.2432 98.7939 32.2742 98.902 32.2742C99.0466 32.2729 99.1848 32.2169 99.2871 32.1182C99.3893 32.0195 99.4473 31.886 99.4485 31.7465Z" fill="#D4AF37"/>
<path d="M101.589 31.7465C101.589 31.6421 101.557 31.5401 101.497 31.4533C101.437 31.3665 101.352 31.2989 101.252 31.2589C101.152 31.219 101.042 31.2085 100.936 31.2289C100.83 31.2492 100.733 31.2995 100.656 31.3733C100.58 31.4471 100.528 31.5411 100.507 31.6435C100.486 31.7459 100.496 31.852 100.538 31.9484C100.579 32.0448 100.649 32.1272 100.739 32.1852C100.829 32.2432 100.935 32.2742 101.043 32.2742C101.187 32.2729 101.325 32.2169 101.428 32.1182C101.53 32.0195 101.588 31.886 101.589 31.7465Z" fill="#D4AF37"/>
<path d="M97.304 33.8851C97.304 33.7805 97.2718 33.6783 97.2115 33.5915C97.1513 33.5046 97.0656 33.4369 96.9655 33.3971C96.8653 33.3573 96.7552 33.3472 96.6491 33.3679C96.5429 33.3887 96.4455 33.4394 96.3693 33.5136C96.2931 33.5879 96.2414 33.6824 96.2209 33.785C96.2003 33.8877 96.2118 33.994 96.2539 34.0903C96.296 34.1866 96.3668 34.2687 96.4574 34.3261C96.5479 34.3836 96.654 34.4137 96.7623 34.4128C96.9064 34.4116 97.0442 34.3554 97.1456 34.2566C97.2471 34.1578 97.304 34.0243 97.304 33.8851Z" fill="#D4AF37"/>
<path d="M99.4485 33.8851C99.4485 33.7808 99.4165 33.6787 99.3564 33.592C99.2964 33.5052 99.211 33.4375 99.1111 33.3976C99.0113 33.3576 98.9014 33.3472 98.7954 33.3676C98.6894 33.3879 98.592 33.4382 98.5155 33.512C98.4391 33.5858 98.3871 33.6798 98.366 33.7822C98.3449 33.8845 98.3557 33.9906 98.3971 34.0871C98.4384 34.1835 98.5085 34.2659 98.5984 34.3239C98.6882 34.3819 98.7939 34.4128 98.902 34.4128C99.0466 34.4116 99.1848 34.3556 99.2871 34.2569C99.3893 34.1582 99.4473 34.0247 99.4485 33.8851Z" fill="#D4AF37"/>
<path d="M101.589 33.8851C101.589 33.7808 101.557 33.6787 101.497 33.592C101.437 33.5052 101.352 33.4375 101.252 33.3976C101.152 33.3576 101.042 33.3472 100.936 33.3676C100.83 33.3879 100.733 33.4382 100.656 33.512C100.58 33.5858 100.528 33.6798 100.507 33.7822C100.486 33.8845 100.496 33.9906 100.538 34.0871C100.579 34.1835 100.649 34.2659 100.739 34.3239C100.829 34.3819 100.935 34.4128 101.043 34.4128C101.187 34.4116 101.325 34.3556 101.428 34.2569C101.53 34.1582 101.588 34.0247 101.589 33.8851Z" fill="#D4AF37"/>
<path d="M73.6172 28.2979V33.8737" stroke="#D4AF37" stroke-width="0.189449" stroke-linejoin="round"/>
<path d="M69.1279 28.3486L63.7109 33.579" stroke="#D4AF37" stroke-width="0.378898" stroke-linejoin="round"/>
<path d="M63.7109 28.3486L69.1279 33.579" stroke="#D4AF37" stroke-width="0.378898" stroke-linejoin="round"/>
<path d="M83.076 33.7279C82.9937 33.814 82.8809 33.8671 82.76 33.8766C82.639 33.8861 82.5188 33.8514 82.4231 33.7793L80.2031 31.8273L80.6239 31.3369L83.0035 33.0975C83.0956 33.1744 83.1542 33.2821 83.1676 33.399C83.1811 33.5159 83.1484 33.6333 83.076 33.7279Z" fill="#D4AF37" stroke="#D4AF37" stroke-width="0.378898" stroke-linejoin="round"/>
<path d="M77.3735 29.149C77.11 29.4574 76.947 29.8343 76.9052 30.2321C76.8634 30.6299 76.9447 31.0307 77.1388 31.3839C77.3329 31.737 77.6311 32.0267 77.9956 32.2163C78.3602 32.4059 78.7748 32.4869 79.187 32.4491C79.5992 32.4113 79.9906 32.2563 80.3116 32.0037C80.6326 31.7512 80.8689 31.4124 80.9905 31.0302C81.1122 30.6481 81.1138 30.2397 80.9951 29.8566C80.8765 29.4736 80.6429 29.1331 80.3238 28.8782C80.112 28.7082 79.8675 28.5803 79.6043 28.5019C79.3412 28.4234 79.0645 28.396 78.7903 28.4212C78.5162 28.4463 78.2498 28.5236 78.0067 28.6485C77.7635 28.7734 77.5484 28.9435 77.3735 29.149ZM80.3674 31.5401C80.1412 31.8026 79.8396 31.9945 79.5006 32.0916C79.1616 32.1888 78.8003 32.1867 78.4625 32.0858C78.1247 31.9849 77.8254 31.7896 77.6025 31.5245C77.3795 31.2595 77.2429 30.9366 77.2098 30.5966C77.1768 30.2567 77.2488 29.9149 77.4168 29.6144C77.5847 29.314 77.8411 29.0683 78.1536 28.9084C78.4661 28.7485 78.8206 28.6816 79.1724 28.7161C79.5243 28.7507 79.8576 28.8851 80.1304 29.1024C80.3128 29.2472 80.4637 29.4254 80.5745 29.6268C80.6852 29.8282 80.7536 30.0488 80.7756 30.2759C80.7977 30.5029 80.7729 30.7319 80.7029 30.9497C80.6328 31.1675 80.5188 31.3697 80.3674 31.5447V31.5401Z" fill="#D4AF37" stroke="#D4AF37" stroke-width="0.378898" stroke-linejoin="round"/>
<path d="M121.18 1H115.934V81H121.18V1Z" fill="#020213" stroke="#D4AF37" stroke-width="0.378898" stroke-linejoin="round"/>
<path d="M121.174 27.6719H115.883V40.8737H121.174V27.6719Z" fill="#020213" stroke="#D4AF37" stroke-width="0.378898" stroke-linejoin="round"/>
<path d="M121.133 1H0.820312V16.625H121.133V1Z" fill="#020213" stroke="#D4AF37" stroke-width="0.378898" stroke-linejoin="round"/>
<path d="M121.137 1H25.1992V6.3125H121.137V1Z" fill="#D4AF37" stroke="#D4AF37" stroke-width="0.378898" stroke-linejoin="round"/>
<path d="M119.167 2.23828L116.135 5.17099" stroke="#FBE6C0" stroke-width="0.378898" stroke-linejoin="round"/>
<path d="M116.135 2.23828L119.167 5.17099" stroke="#FBE6C0" stroke-width="0.378898" stroke-linejoin="round"/>
<path d="M110.352 2.48242H108.117V4.63992H110.352V2.48242Z" fill="#D4AF37" stroke="#FBE6C0" stroke-width="0.378898" stroke-linejoin="round"/>
<path d="M109.277 3.00195H107.043V5.15946H109.277V3.00195Z" fill="#D4AF37" stroke="#FBE6C0" stroke-width="0.378898" stroke-linejoin="round"/>
<path d="M100.075 3.80762H96.2109" stroke="#FBE6C0" stroke-width="0.378898" stroke-linejoin="round"/>
<path d="M28.8066 2.13672V5.48505" stroke="#FBE6C0" stroke-width="0.378898" stroke-linejoin="round"/>
<path d="M30.542 3.80762H27.0742" stroke="#FBE6C0" stroke-width="0.378898" stroke-linejoin="round"/>
<rect x="4.13671" y="24.9394" width="83.0588" height="13.3711" rx="6.68555" stroke="#020213" stroke-width="0.378898"/>
</svg>
