<svg width="120" height="80" viewBox="0 0 120 80" fill="none" xmlns="http://www.w3.org/2000/svg">
<path d="M119.9 0H0.0976562V80H119.9V0Z" fill="#FBE6C0"/>
<path d="M14.5977 11.984C14.5977 11.984 15.9128 19.0644 15.9128 21.1633V28.5014C15.9128 28.5014 21.1573 28.7645 25.3497 28.5014C29.5421 28.2384 34.5289 25.6188 34.5289 25.6188C34.5289 25.6188 32.6931 18.5384 32.6931 16.7025C32.6931 14.8666 31.6195 10.4111 31.6195 10.4111L14.5977 11.984Z" fill="#F9CD3F"/>
<path d="M15.1223 56.0352C15.1223 56.0352 14.3386 62.0635 14.3386 64.6884C14.3386 67.3134 13.0234 71.5059 13.0234 71.5059C13.0234 71.5059 19.3201 73.8678 20.8929 73.8678C22.4657 73.8678 29.283 73.331 29.283 73.331L30.3298 57.8603C30.3298 57.8603 17.2212 56.5612 15.1223 56.0352Z" fill="#F9CD3F"/>
<path d="M44.2344 23.5182L47.4015 37.9367C47.4015 37.9367 51.3362 38.1998 55.5286 38.1998C59.721 38.1998 66.8013 34.265 66.8013 34.265C66.8013 34.265 63.3927 27.4476 63.3927 25.6117C63.3927 23.7758 62.3191 18.5312 62.3191 18.5312C62.3191 18.5312 51.5831 21.94 49.9727 22.203C48.3623 22.466 44.2344 23.5182 44.2344 23.5182Z" fill="#F9CD3F"/>
<path d="M67.8319 19.585C67.8319 19.585 67.0482 29.022 67.0482 30.0741C67.0482 31.1263 66.7852 35.3187 66.7852 35.3187C69.4779 35.7277 72.191 35.9894 74.9123 36.1024C77.8002 36.1024 82.7817 35.8394 82.7817 35.8394C82.7817 35.8394 82.5187 26.6654 83.0448 25.8763C83.5708 25.0872 83.8285 20.8948 83.8285 20.8948C83.8285 20.8948 68.8733 19.8426 67.8319 19.585Z" fill="#F9CD3F"/>
<path d="M73.6032 40.5639V46.8552C73.6032 47.902 73.0664 55.5085 73.0664 55.5085C73.0664 55.5085 79.8837 55.7715 82.5087 55.5085C85.1336 55.2455 90.3728 53.6726 90.3728 53.6726L89.589 45.2824L89.0522 39.5117C89.0522 39.5117 76.4858 41.3476 73.6032 40.5639Z" fill="#F9CD3F"/>
<path d="M113.2 5.19013L107.166 5.45317H104.021V9.90864C104.021 11.2184 103.758 15.4163 103.758 16.2C103.758 16.9837 107.956 17.5152 109.791 17.5152H116.346L116.609 4.66406L113.2 5.19013Z" fill="#F9CD3F"/>
<path d="M97.9844 33.4766H109.262" stroke="#020213" stroke-width="0.386473" stroke-miterlimit="10"/>
<path d="M97.9844 36.0947H109.262" stroke="#020213" stroke-width="0.386473" stroke-miterlimit="10"/>
<path d="M97.9844 38.7236H109.262" stroke="#020213" stroke-width="0.386473" stroke-miterlimit="10"/>
<path d="M97.9844 41.3418H109.262" stroke="#020213" stroke-width="0.386473" stroke-miterlimit="10"/>
<path d="M39.7773 3.5918H77.015" stroke="#020213" stroke-width="0.386473" stroke-miterlimit="10"/>
<path d="M39.7773 6.20996H77.015" stroke="#020213" stroke-width="0.386473" stroke-miterlimit="10"/>
<path d="M77.8008 60.752H89.0735" stroke="#020213" stroke-width="0.386473" stroke-miterlimit="10"/>
<path d="M77.8008 63.377H89.0735" stroke="#020213" stroke-width="0.386473" stroke-miterlimit="10"/>
<path d="M77.8008 65.999H89.0735" stroke="#020213" stroke-width="0.386473" stroke-miterlimit="10"/>
<path d="M77.8008 68.624H89.0735" stroke="#020213" stroke-width="0.386473" stroke-miterlimit="10"/>
<path d="M7.77734 43.4531H19.0555" stroke="#020213" stroke-width="0.386473" stroke-miterlimit="10"/>
<path d="M7.77734 46.0781H19.0555" stroke="#020213" stroke-width="0.386473" stroke-miterlimit="10"/>
<path d="M7.77734 48.7002H19.0555" stroke="#020213" stroke-width="0.386473" stroke-miterlimit="10"/>
<path d="M7.77734 51.3252H19.0555" stroke="#020213" stroke-width="0.386473" stroke-miterlimit="10"/>
<path d="M87.2383 10.4102H98.5164" stroke="#020213" stroke-width="0.386473" stroke-miterlimit="10"/>
<path d="M87.2383 13.0283H98.5164" stroke="#020213" stroke-width="0.386473" stroke-miterlimit="10"/>
<path d="M87.2383 15.6572H98.5164" stroke="#020213" stroke-width="0.386473" stroke-miterlimit="10"/>
<path d="M87.2383 18.2754H98.5164" stroke="#020213" stroke-width="0.386473" stroke-miterlimit="10"/>
<path d="M45.9514 35.4518L39.4829 37.2984L41.147 38.7371C38.1249 40.7286 31.7209 44.1373 27.5285 40.6749C21.9082 36.0316 23.422 32.0216 23.4864 31.8499L22.9925 31.6512L22.4933 31.4473C22.4128 31.6405 20.5823 36.3268 26.8467 41.5016C28.2734 42.6743 30.0731 43.2971 31.9195 43.257C35.8327 43.257 39.8694 40.9272 42.0005 39.4993L44.1048 41.3191L45.9514 35.4518Z" fill="#020213"/>
<path d="M111.231 24.4154L109.363 18.1885L105.938 23.17L107.839 23.6156L105.863 30.7175L106.899 31.0074L108.885 23.8625L111.231 24.4154Z" fill="#020213"/>
<path d="M25.3486 12.7603C25.3529 12.4481 25.2641 12.1417 25.0937 11.8802C24.9232 11.6186 24.6788 11.4137 24.3915 11.2915C24.1042 11.1693 23.787 11.1354 23.4803 11.194C23.1737 11.2527 22.8915 11.4013 22.6695 11.621C22.4476 11.8406 22.2961 12.1213 22.2343 12.4273C22.1724 12.7333 22.2031 13.0509 22.3223 13.3394C22.4415 13.628 22.6439 13.8745 22.9037 14.0477C23.1635 14.2208 23.469 14.3127 23.7812 14.3117C24.1937 14.3103 24.5891 14.1469 24.8823 13.8567C25.1755 13.5666 25.343 13.1728 25.3486 12.7603Z" fill="#D4AF37" stroke="#020213" stroke-width="0.386473" stroke-miterlimit="10"/>
<path d="M54.1964 22.7291C54.1964 22.418 54.1042 22.1139 53.9313 21.8553C53.7585 21.5966 53.5129 21.395 53.2255 21.276C52.9381 21.1569 52.6219 21.1258 52.3168 21.1865C52.0117 21.2472 51.7314 21.397 51.5114 21.6169C51.2915 21.8369 51.1417 22.1171 51.081 22.4222C51.0203 22.7273 51.0515 23.0436 51.1705 23.331C51.2896 23.6184 51.4911 23.864 51.7498 24.0369C52.0084 24.2097 52.3125 24.3019 52.6236 24.3019C53.0407 24.3019 53.4408 24.1362 53.7357 23.8412C54.0307 23.5463 54.1964 23.1462 54.1964 22.7291Z" fill="#D4AF37" stroke="#020213" stroke-width="0.386473" stroke-miterlimit="10"/>
<path d="M76.483 21.9416C77.3516 21.9416 78.0558 21.2374 78.0558 20.3687C78.0558 19.5001 77.3516 18.7959 76.483 18.7959C75.6143 18.7959 74.9102 19.5001 74.9102 20.3687C74.9102 21.2374 75.6143 21.9416 76.483 21.9416Z" fill="#D4AF37" stroke="#020213" stroke-width="0.386473" stroke-miterlimit="10"/>
<path d="M81.7291 43.7131C82.5977 43.7131 83.3019 43.0089 83.3019 42.1402C83.3019 41.2716 82.5977 40.5674 81.7291 40.5674C80.8604 40.5674 80.1562 41.2716 80.1562 42.1402C80.1562 43.0089 80.8604 43.7131 81.7291 43.7131Z" fill="#D4AF37" stroke="#020213" stroke-width="0.386473" stroke-miterlimit="10"/>
<path d="M25.3487 58.9146C25.3509 58.6029 25.2603 58.2975 25.0885 58.0373C24.9168 57.7772 24.6715 57.5739 24.384 57.4534C24.0965 57.3328 23.7797 57.3005 23.4737 57.3604C23.1678 57.4203 22.8865 57.5698 22.6657 57.7898C22.4449 58.0099 22.2944 58.2906 22.2335 58.5964C22.1725 58.9021 22.2038 59.2191 22.3234 59.507C22.4429 59.7949 22.6453 60.0408 22.9049 60.2135C23.1645 60.3862 23.4695 60.4778 23.7813 60.4767C24.1956 60.4753 24.5927 60.3105 24.8862 60.018C25.1797 59.7255 25.3459 59.329 25.3487 58.9146Z" fill="#D4AF37" stroke="#020213" stroke-width="0.386473" stroke-miterlimit="10"/>
<path d="M111.884 5.19003C111.884 4.87895 111.792 4.57486 111.619 4.3162C111.446 4.05755 111.2 3.85596 110.913 3.73691C110.626 3.61787 110.309 3.58672 110.004 3.64741C109.699 3.7081 109.419 3.8579 109.199 4.07786C108.979 4.29783 108.829 4.57808 108.769 4.88318C108.708 5.18829 108.739 5.50453 108.858 5.79193C108.977 6.07932 109.179 6.32497 109.437 6.49779C109.696 6.67062 110 6.76286 110.311 6.76286C110.728 6.76286 111.128 6.59716 111.423 6.30219C111.718 6.00723 111.884 5.60717 111.884 5.19003Z" fill="#D4AF37" stroke="#020213" stroke-width="0.386473" stroke-miterlimit="10"/>
</svg>
