<svg width="80" height="80" viewBox="0 0 80 80" fill="none" xmlns="http://www.w3.org/2000/svg">
<path d="M27.5711 2.48844H27.3092C20.7403 2.46514 14.4296 5.04488 9.75812 9.66314C5.08664 14.2814 2.43479 20.5621 2.38288 27.1308C2.37346 31.1421 3.35569 35.0935 5.2422 38.6335C6.0498 40.5106 11.7903 49.2195 13.2527 53.9122C14.271 56.9882 15.0017 60.1521 15.4354 63.3632C15.446 63.4282 15.446 63.4946 15.4354 63.5596C15.4325 63.7574 15.4686 63.9538 15.5416 64.1376C15.6146 64.3215 15.7232 64.4891 15.861 64.631C15.9988 64.7729 16.1633 64.8862 16.3449 64.9645C16.5265 65.0429 16.7218 65.0846 16.9196 65.0875H37.306C37.5027 65.0847 37.697 65.0428 37.8775 64.9642C38.0579 64.8856 38.2209 64.7719 38.357 64.6297C38.4931 64.4875 38.5995 64.3197 38.6702 64.136C38.7408 63.9523 38.7742 63.7563 38.7684 63.5596V63.3632C39.1972 60.1512 39.928 56.9869 40.9511 53.9122C42.479 49.1758 48.1976 40.4669 49.0051 38.6335C50.8917 35.0935 51.874 31.1421 51.8645 27.1308C51.8652 20.6553 49.3169 14.4398 44.7708 9.82833C40.2247 5.2169 34.046 2.58021 27.5711 2.48844Z" fill="#D4AF37"/>
<path d="M25.41 64.7368V41.1639C25.41 41.1639 26.3922 35.0088 23.2273 35.0088C20.0624 35.0088 20.2807 38.2173 23.9694 41.5568C27.6582 44.8963 33.3332 41.7969 34.0753 39.0904C34.8174 36.3839 32.8311 35.1398 31.6088 37.3661C30.3865 39.5924 31.6088 64.715 31.6088 64.715" stroke="#020213" stroke-width="0.172261" stroke-linecap="round" stroke-linejoin="round"/>
<path d="M36.2375 65.0449H17.5318C16.2058 65.0449 15.1309 66.1199 15.1309 67.4459V67.5768C15.1309 68.9028 16.2058 69.9778 17.5318 69.9778H36.2375C37.5635 69.9778 38.6385 68.9028 38.6385 67.5768V67.4459C38.6385 66.1199 37.5635 65.0449 36.2375 65.0449Z" fill="#FBE6C0"/>
<path d="M36.257 70.7852H17.5513C16.2253 70.7852 15.1504 71.8601 15.1504 73.1861V73.317C15.1504 74.6431 16.2253 75.718 17.5513 75.718H36.257C37.583 75.718 38.658 74.6431 38.658 73.317V73.1861C38.658 71.8601 37.583 70.7852 36.257 70.7852Z" fill="#FBE6C0"/>
<path d="M20.627 76.9824C21.3751 77.9235 22.326 78.6836 23.4087 79.206C24.4915 79.7285 25.6782 79.9998 26.8804 79.9998C28.0826 79.9998 29.2693 79.7285 30.352 79.206C31.4348 78.6836 32.3856 77.9235 33.1338 76.9824H20.627Z" fill="#FBE6C0"/>
<path d="M70.6992 48.8272L74.7372 51.0099L72.8819 54.4585L66.8577 53.9347L58.127 43.0213L58.5198 42.2574L68.5165 47.6704C68.4187 47.9449 68.4221 48.2452 68.5262 48.5173C68.6302 48.7895 68.8281 49.0155 69.084 49.1547C69.348 49.3019 69.656 49.3498 69.9522 49.2898C70.2485 49.2297 70.5134 49.0657 70.6992 48.8272ZM59.131 41.1006L58.7381 41.8427L68.7348 47.2557C68.9209 47.0507 69.1701 46.9136 69.4429 46.8662C69.7157 46.8187 69.9965 46.8637 70.2409 46.9938C70.482 47.1263 70.6713 47.3363 70.7783 47.5899C70.8852 47.8434 70.9035 48.1255 70.8302 48.3907L74.9119 50.5734L76.7671 47.1248L73.0347 42.3884L59.131 41.1006Z" fill="#FBE6C0"/>
<path d="M77.3421 47.4437L73.4375 54.6621L75.8757 55.981L79.7803 48.7625L77.3421 47.4437Z" fill="#FBE6C0"/>
<path d="M52.4531 10.1924V44.0675" stroke="#FBE6C0" stroke-width="0.748078" stroke-linecap="round" stroke-linejoin="round"/>
<path d="M54.2414 44.0697C54.2356 43.5988 54.0445 43.1492 53.7095 42.8182C53.3745 42.4873 52.9225 42.3017 52.4516 42.3018C51.9827 42.3018 51.533 42.488 51.2014 42.8196C50.8699 43.1511 50.6836 43.6008 50.6836 44.0697C50.6836 44.5406 50.8691 44.9926 51.2001 45.3276C51.531 45.6627 51.9807 45.8538 52.4516 45.8595C52.9263 45.8595 53.3815 45.6709 53.7172 45.3353C54.0528 44.9996 54.2414 44.5444 54.2414 44.0697Z" fill="#FBE6C0"/>
<path d="M54.2414 9.47206C54.2356 9.00117 54.0445 8.55152 53.7095 8.22058C53.3745 7.88963 52.9225 7.70407 52.4516 7.7041C51.9827 7.7041 51.533 7.89037 51.2014 8.22193C50.8699 8.55348 50.6836 9.00317 50.6836 9.47206C50.6836 9.94095 50.8699 10.3906 51.2014 10.7222C51.533 11.0538 51.9827 11.24 52.4516 11.24C52.9225 11.2401 53.3745 11.0545 53.7095 10.7235C54.0445 10.3926 54.2356 9.94295 54.2414 9.47206Z" fill="#FBE6C0"/>
<path d="M11.1113 1.76758H44.9867" stroke="#FBE6C0" stroke-width="0.748078" stroke-linecap="round" stroke-linejoin="round"/>
<path d="M44.9867 4.95563e-09C44.5178 4.95566e-09 44.0681 0.186268 43.7366 0.517825C43.405 0.849383 43.2188 1.29907 43.2188 1.76796C43.2187 2.23888 43.4043 2.69084 43.7352 3.02587C44.0662 3.3609 44.5158 3.55201 44.9867 3.55775C45.4614 3.55775 45.9167 3.36918 46.2523 3.03353C46.588 2.69788 46.7765 2.24264 46.7765 1.76796C46.7708 1.29707 46.5797 0.847421 46.2447 0.516476C45.9096 0.185532 45.4577 -3.50145e-05 44.9867 4.95563e-09Z" fill="#FBE6C0"/>
<path d="M10.391 0C9.92212 0 9.47244 0.186268 9.14088 0.517825C8.80932 0.849383 8.62305 1.29907 8.62305 1.76796C8.62305 2.23685 8.80932 2.68654 9.14088 3.01809C9.47244 3.34965 9.92212 3.53592 10.391 3.53592C10.8599 3.53592 11.3096 3.34965 11.6412 3.01809C11.9727 2.68654 12.159 2.23685 12.159 1.76796C12.159 1.29907 11.9727 0.849383 11.6412 0.517825C11.3096 0.186268 10.8599 0 10.391 0Z" fill="#FBE6C0"/>
<path d="M1.99023 10.1924V44.0675" stroke="#FBE6C0" stroke-width="0.748078" stroke-linecap="round" stroke-linejoin="round"/>
<path d="M3.7785 44.0697C3.77276 43.5988 3.58165 43.1492 3.24662 42.8182C2.91158 42.4873 2.45964 42.3017 1.98871 42.3018C1.51981 42.3018 1.07009 42.488 0.738533 42.8196C0.406972 43.1511 0.220703 43.6008 0.220703 44.0697C0.220668 44.5406 0.406253 44.9926 0.737201 45.3276C1.06815 45.6627 1.51782 45.8538 1.98871 45.8595C2.4634 45.8595 2.91862 45.6709 3.25428 45.3353C3.58993 44.9996 3.7785 44.5444 3.7785 44.0697Z" fill="#FBE6C0"/>
<path d="M1.98871 11.24C2.96514 11.24 3.75669 10.4485 3.75669 9.47206C3.75669 8.49564 2.96514 7.7041 1.98871 7.7041C1.01228 7.7041 0.220703 8.49564 0.220703 9.47206C0.220703 10.4485 1.01228 11.24 1.98871 11.24Z" fill="#FBE6C0"/>
</svg>
