<svg width="126" height="82" viewBox="0 0 126 82" fill="none" xmlns="http://www.w3.org/2000/svg">
<path d="M123.512 1.02051H2.54959C1.53845 1.02051 0.71875 1.44304 0.71875 1.96427V80.0565C0.71875 80.5777 1.53845 81.0003 2.54959 81.0003H123.512C124.523 81.0003 125.343 80.5777 125.343 80.0565V1.96427C125.343 1.44304 124.523 1.02051 123.512 1.02051Z" fill="#FBE6C0" stroke="#020213" stroke-width="0.386476" stroke-linecap="round" stroke-linejoin="round"/>
<path d="M2.48889 1H123.44C123.681 1 123.919 1.04735 124.141 1.13935C124.363 1.23135 124.565 1.3662 124.735 1.53619C124.905 1.70619 125.04 1.908 125.132 2.13011C125.224 2.35222 125.271 2.59027 125.271 2.83068V5.67388H0.658209V2.8352C0.657614 2.59441 0.704527 2.35587 0.796261 2.13324C0.887995 1.91061 1.02275 1.70826 1.1928 1.53779C1.36285 1.36732 1.56487 1.23207 1.78727 1.13978C2.00967 1.0475 2.2481 0.999999 2.48889 1Z" fill="#020213" stroke="#020213" stroke-width="0.386476" stroke-linecap="round" stroke-linejoin="round"/>
<path d="M6.84598 3.74232C6.84598 3.52597 6.78182 3.31448 6.66163 3.13459C6.54143 2.9547 6.37059 2.8145 6.17071 2.7317C5.97082 2.64891 5.75087 2.62725 5.53868 2.66946C5.32649 2.71166 5.13158 2.81585 4.9786 2.96883C4.82561 3.12181 4.72143 3.31673 4.67922 3.52892C4.63701 3.74111 4.65868 3.96106 4.74147 4.16094C4.82426 4.36082 4.96447 4.53166 5.14436 4.65186C5.32425 4.77206 5.53574 4.83621 5.75209 4.83621C5.89591 4.83681 6.03842 4.80893 6.17141 4.75417C6.3044 4.6994 6.42522 4.61885 6.52691 4.51715C6.62861 4.41546 6.70916 4.29463 6.76393 4.16164C6.81869 4.02866 6.84657 3.88614 6.84598 3.74232Z" fill="#FBE6C0"/>
<path d="M11.9905 3.74232C11.9905 3.52577 11.9262 3.3141 11.8058 3.13412C11.6854 2.95413 11.5143 2.81393 11.3142 2.73127C11.114 2.64861 10.8939 2.62721 10.6815 2.66979C10.4692 2.71237 10.2743 2.817 10.1215 2.97043C9.96873 3.12387 9.8649 3.3192 9.82321 3.53169C9.78151 3.74418 9.80382 3.96427 9.8873 4.16407C9.97079 4.36387 10.1117 4.5344 10.2922 4.65405C10.4727 4.77371 10.6846 4.8371 10.9011 4.8362C11.0446 4.8362 11.1866 4.80788 11.3191 4.75285C11.4515 4.69782 11.5718 4.61717 11.673 4.51554C11.7743 4.4139 11.8544 4.29328 11.9089 4.16059C11.9634 4.0279 11.9911 3.88575 11.9905 3.74232Z" fill="#FBE6C0"/>
<path d="M17.1526 3.74232C17.1526 3.52577 17.0883 3.3141 16.9679 3.13412C16.8475 2.95413 16.6764 2.81393 16.4763 2.73127C16.2761 2.64861 16.056 2.62721 15.8437 2.66979C15.6313 2.71237 15.4364 2.817 15.2836 2.97043C15.1308 3.12387 15.027 3.3192 14.9853 3.53169C14.9436 3.74418 14.9659 3.96427 15.0494 4.16407C15.1329 4.36387 15.2738 4.5344 15.4543 4.65405C15.6348 4.77371 15.8467 4.8371 16.0632 4.8362C16.2067 4.8362 16.3487 4.80788 16.4812 4.75285C16.6136 4.69782 16.7339 4.61717 16.8351 4.51554C16.9364 4.4139 17.0165 4.29328 17.071 4.16059C17.1255 4.0279 17.1532 3.88575 17.1526 3.74232Z" fill="#FBE6C0"/>
<path opacity="0.1" d="M117.569 12.8428H5.74414V76.0623H117.569V12.8428Z" fill="#020213"/>
<path d="M8.47852 18.8096H43.0354" stroke="#020213" stroke-width="1.15943" stroke-linecap="round" stroke-linejoin="round"/>
<path d="M8.47852 23.792H57.0435" stroke="#020213" stroke-width="1.15943" stroke-linecap="round" stroke-linejoin="round"/>
<path d="M120.24 76.3906H4.12109" stroke="#020213" stroke-width="0.386476" stroke-linecap="round" stroke-linejoin="round"/>
<path d="M9.82845 68.0049H29.6189C30.0811 68.0049 30.5243 68.2302 30.8511 68.6311C31.1779 69.0321 31.3615 69.576 31.3615 70.1431V76.3957H8.11328V70.1431C8.11322 69.5818 8.29305 69.043 8.61394 68.6429C8.93483 68.2429 9.37105 68.0137 9.82845 68.0049Z" fill="#020213"/>
<path d="M11.8516 72.4209H27.2386" stroke="#D4AF37" stroke-width="0.772952" stroke-linecap="round" stroke-linejoin="round"/>
<path d="M34.6528 68.0049H54.4432C54.9054 68.0049 55.3487 68.2302 55.6755 68.6311C56.0023 69.0321 56.1859 69.576 56.1859 70.1431V76.3957H32.9102V70.1431C32.9102 69.576 33.0938 69.0321 33.4206 68.6311C33.7474 68.2302 34.1906 68.0049 34.6528 68.0049Z" fill="#020213"/>
<path d="M36.6543 72.4209H52.0414" stroke="#D4AF37" stroke-width="0.772952" stroke-linecap="round" stroke-linejoin="round"/>
<mask id="mask0_6568_1516" style="mask-type:luminance" maskUnits="userSpaceOnUse" x="64" y="8" width="59" height="69">
<path d="M122.906 8.19531H64.3789V76.378H122.906V8.19531Z" fill="white"/>
</mask>
<g mask="url(#mask0_6568_1516)">
<path d="M74.1971 40.2402C74.1971 40.2402 70.0973 48.6297 69.4645 52.0967C68.8316 55.5637 68.3299 58.9086 69.0124 58.9086C69.695 58.9086 80.887 52.9781 80.887 52.9781L82.6544 56.0699L79.5626 78.0155C79.5626 78.0155 84.1686 82.3006 90.8631 81.9255C97.5575 81.5503 105.621 76.5012 105.621 76.5012L99.8176 57.2045L101.965 52.7883C101.965 52.7883 113.441 58.8453 115.977 59.8533C118.513 60.8613 118.811 61.3676 118.938 60.8613C119.065 60.3551 116.678 44.2135 116.678 44.2135L112.831 44.7197C112.831 44.7197 113.649 52.4764 113.337 52.4764C113.026 52.4764 110.878 49.3846 107.787 46.9256C104.695 44.4666 100.789 39.9916 98.2038 38.9158C95.6183 37.84 91.5818 37.2795 88.9962 38.0976C86.4107 38.9158 84.8964 42.5139 84.8964 42.5139L76.2583 47.6217L78.5184 42.0709L74.1971 40.2402Z" fill="#020213"/>
<path d="M90.1484 31.9731L90.6005 38.8438L91.8616 40.6744C91.8616 40.6744 93.0594 44.7743 93.2493 44.5211C93.4391 44.268 94.5692 40.7377 94.5692 40.7377L96.8293 38.0256L97.2045 30.7119C97.2045 30.7119 95.7625 33.6139 90.1484 31.9731Z" fill="#FBE6C0"/>
<path d="M92.2918 15.8564C90.5722 16.7667 89.0678 18.0352 87.8801 19.5765C86.0494 22.0355 86.9309 26.072 86.9309 27.8394C86.9309 29.6068 88.6983 32.3144 89.8961 33.449C91.094 34.5835 92.4817 35.2164 93.9959 34.8367C95.5102 34.457 98.0325 32.0613 98.5161 28.9604C98.9998 25.8596 99.0857 22.0219 98.3896 20.0692C97.6935 18.1165 94.2943 16.0326 93.8694 15.7795C93.4445 15.5264 92.9247 15.1648 92.2918 15.8564Z" fill="#020213"/>
<path d="M92.1883 10.1578C92.1883 10.1578 88.093 11.6088 85.756 14.3842C83.4191 17.1596 82.6959 18.606 82.6959 21.3182C82.6959 24.0303 84.2101 39.9866 84.2101 39.9866C84.2101 39.9866 81.9998 39.6702 80.8652 41.433C79.7306 43.1959 80.3634 45.5962 81.498 46.2923C82.0869 46.6816 82.7531 46.9391 83.4507 47.0471C83.4507 47.0471 84.7751 48.7513 87.6771 48.3083C90.5791 47.8653 90.8413 46.2923 90.7644 43.2004C90.6876 40.1086 90.7644 21.1916 90.7644 21.1916C90.7644 21.1916 91.0808 19.9305 91.9623 19.492C92.8437 19.0535 96.5051 19.7451 96.6316 22.8957C96.7582 26.0463 95.9988 38.0293 95.9988 42.1924C95.9988 46.3555 99.0273 47.4268 101.676 47.8653C104.325 48.3037 106.608 44.6605 106.291 41.6862C105.975 38.7119 103.896 37.8395 103.127 37.7762L102.368 37.7129C102.373 35.6613 102.564 33.6144 102.937 31.5971C103.566 28.0035 104.578 24.1569 103.389 19.8039C102.201 15.451 99.2262 11.7986 96.7672 10.9127C94.3082 10.0267 93.3635 9.71482 92.1883 10.1578Z" fill="#D4AF37"/>
<path d="M92.2918 14.8847C90.5722 15.795 89.0678 17.0636 87.8801 18.6048C86.0494 21.0638 86.9309 25.1003 86.9309 26.8677C86.9309 28.6351 88.6983 31.3427 89.8961 32.4773C91.094 33.6119 92.4817 34.2447 93.9959 33.865C95.5102 33.4853 98.0325 31.0941 98.5161 27.9887C98.9998 24.8834 99.0857 21.0502 98.3896 19.0975C97.6935 17.1448 94.2943 15.061 93.8694 14.8078C93.4445 14.5547 92.9247 14.1931 92.2918 14.8847Z" fill="#FBE6C0"/>
<path d="M85.1055 23.7145C85.1055 25.4412 86.9136 27.1227 88.6358 27.1227C89.4679 27.1227 90.2666 26.795 90.8589 26.2104C91.4511 25.6257 91.7892 24.8313 91.7999 23.9992C91.7999 22.277 90.3851 21.4453 88.6358 21.4453C86.8864 21.4453 85.1055 21.9923 85.1055 23.7145Z" fill="#FBE6C0"/>
<path d="M93.5081 28.8823C93.5081 28.8823 92.3735 28.0009 91.9305 28.7558C91.4875 29.5106 92.0571 30.9028 92.8345 31.2147C93.612 31.5266 94.9138 31.721 95.167 29.6417C95.4201 27.5624 93.5081 28.8823 93.5081 28.8823Z" fill="#020213"/>
<path d="M93.995 30.0844C93.9949 29.984 93.9651 29.886 93.9093 29.8026C93.8535 29.7193 93.7741 29.6544 93.6814 29.6162C93.5886 29.578 93.4866 29.5683 93.3883 29.5882C93.2899 29.6081 93.1997 29.6568 93.1291 29.728C93.0585 29.7993 93.0106 29.8899 92.9916 29.9884C92.9726 30.0869 92.9833 30.1888 93.0223 30.2813C93.0613 30.3737 93.1269 30.4524 93.2107 30.5075C93.2946 30.5626 93.3929 30.5915 93.4932 30.5906C93.5595 30.5906 93.6251 30.5775 93.6863 30.552C93.7474 30.5265 93.8029 30.4891 93.8496 30.4421C93.8962 30.395 93.9331 30.3392 93.9581 30.2778C93.983 30.2164 93.9955 30.1506 93.995 30.0844Z" fill="#020213"/>
<path d="M100.808 23.7145C100.808 25.4412 99.0002 27.1227 97.2735 27.1227C96.8604 27.1263 96.4507 27.0482 96.0678 26.893C95.685 26.7378 95.3366 26.5085 95.0426 26.2183C94.7486 25.9281 94.5148 25.5826 94.3546 25.2018C94.1945 24.821 94.1111 24.4123 94.1094 23.9992C94.1094 22.277 95.5197 21.4453 97.2735 21.4453C99.0273 21.4453 100.808 21.9923 100.808 23.7145Z" fill="#020213"/>
<path d="M91.791 24.0002C91.791 24.0002 92.799 22.6441 94.1234 24.0002Z" fill="#FBE6C0"/>
<path d="M77.0947 28.6296L79.1152 32.4763L76.0234 38.8046L79.052 40.0657C79.052 40.0657 82.0127 32.1825 82.6455 31.1745C83.2784 30.1665 85.6108 27.0114 85.8097 26.8848C86.0086 26.7582 87.4505 25.0767 87.0075 24.7422C86.5645 24.4077 85.4978 25.1174 84.7474 26.0666C83.9971 27.0159 82.9393 27.8747 82.6681 27.7662C82.3969 27.6578 79.2011 25.5604 78.7582 25.5061C78.3152 25.4519 77.0947 26.2972 77.0947 28.6296Z" fill="#FBE6C0"/>
<path d="M91.6641 20.1152H79.0527V28.5002H91.6641V20.1152Z" fill="#020213"/>
<path d="M91.6641 20.1152H79.0527V22.2578H91.6641V20.1152Z" fill="#FBE6C0"/>
<path d="M88.1196 24.4706C88.1205 23.9579 87.9692 23.4565 87.685 23.0299C87.4007 22.6033 86.9962 22.2706 86.5228 22.074C86.0493 21.8774 85.5282 21.8257 85.0253 21.9255C84.5225 22.0253 84.0606 22.2721 83.6981 22.6346C83.3356 22.9971 83.0888 23.459 82.989 23.9619C82.8892 24.4647 82.9409 24.9859 83.1375 25.4593C83.3341 25.9328 83.6668 26.3372 84.0934 26.6215C84.52 26.9058 85.0214 27.057 85.534 27.0561C86.2198 27.0561 86.8774 26.7837 87.3623 26.2988C87.8472 25.8139 88.1196 25.1563 88.1196 24.4706Z" fill="#FBE6C0"/>
<path d="M87.4633 24.4709C87.4633 24.0907 87.3505 23.7191 87.1392 23.4031C86.9279 23.0871 86.6276 22.8409 86.2763 22.6956C85.925 22.5503 85.5385 22.5126 85.1657 22.5871C84.793 22.6615 84.4507 22.845 84.1822 23.1141C83.9137 23.3832 83.7311 23.7259 83.6575 24.0989C83.5838 24.4718 83.6225 24.8582 83.7686 25.2092C83.9147 25.5601 84.1617 25.8599 84.4782 26.0704C84.7947 26.281 85.1666 26.3929 85.5467 26.392C85.7988 26.392 86.0484 26.3422 86.2812 26.2456C86.514 26.149 86.7255 26.0075 86.9035 25.829C87.0815 25.6506 87.2226 25.4388 87.3187 25.2057C87.4147 24.9727 87.4639 24.7229 87.4633 24.4709Z" fill="#FBE6C0"/>
<path d="M76.9048 25.7355C76.8776 25.3965 78.0393 20.4378 78.5456 19.8592C79.0519 19.2806 80.7515 18.4715 80.878 18.9145C81.0046 19.3575 81.0046 19.6106 80.5028 19.8592C80.0011 20.1078 79.1784 20.4288 79.0519 20.6186C78.9253 20.8085 78.2292 24.4653 78.2292 24.4653L79.1332 25.6632L76.9228 27.1774C76.9537 26.697 76.9476 26.215 76.9048 25.7355Z" fill="#FBE6C0"/>
<path d="M78.7987 28.9472L80.878 28.4951C81.3614 28.9371 81.8046 29.4212 82.2024 29.9416C82.3923 30.3213 82.7087 29.8828 82.8985 29.693C83.0884 29.5031 82.8985 29.0602 82.5821 28.3686C82.2657 27.677 81.7007 26.4746 81.3843 26.2215C81.0679 25.9683 78.862 26.2848 78.862 26.2848L80.5028 24.7117C80.5028 24.7117 81.5741 25.4666 82.5188 26.1582C83.4636 26.8498 83.0251 26.0949 83.1472 25.783C83.2692 25.4711 81.0679 23.8891 80.7515 23.6359C80.435 23.3828 80.2497 23.1342 79.8067 23.4506C79.3637 23.767 76.5296 26.4746 76.5296 26.4746C76.5296 26.4746 76.0776 26.6012 76.7194 27.8623C77.0343 28.5321 77.4608 29.1435 77.9806 29.6704" fill="#FBE6C0"/>
<path d="M78.2305 27.6233C78.2305 27.6233 80.8793 26.8684 81.3223 27.1713C81.828 27.6331 82.2923 28.1383 82.71 28.681" fill="#FBE6C0"/>
<path d="M75.142 36.4492L80.625 39.6043L78.9254 43.9528L73.5645 41.2451L75.142 36.4492Z" fill="#FBE6C0"/>
<path d="M113.293 43.3274C113.293 43.3274 111.779 37.4511 110.708 34.739C109.913 32.824 109.238 30.8615 108.687 28.8628C108.624 28.361 109.383 28.4876 109.822 29.4323C110.26 30.377 112.032 34.0971 112.285 34.1604C112.539 34.2237 113.605 34.2237 113.605 33.844C113.605 33.4643 112.534 29.5589 112.534 28.8718C112.534 28.1847 113.167 28.8085 113.438 29.3238C113.709 29.8391 114.699 33.2971 114.762 33.4869C114.826 33.6768 116.209 33.4417 116.647 34.0339C117.212 34.8023 116.9 35.6069 116.647 36.294C116.343 36.7734 116.073 37.2733 115.838 37.7901C115.652 38.2268 115.408 38.6359 115.111 39.0061L115.635 43.2551L113.293 43.3274Z" fill="#FBE6C0"/>
<path d="M116.505 33.3616C116.505 33.3616 117.893 33.235 117.893 34.0531C117.893 34.8713 117.441 36.702 117.012 37.0817C116.582 37.4614 116.379 37.3348 116.379 36.137C116.379 34.9391 116.505 33.3616 116.505 33.3616Z" fill="#FBE6C0"/>
<path d="M114.744 33.4853C114.744 33.4853 114.866 32.2242 115.942 32.2875C117.018 32.3507 116.823 33.8605 116.76 35.2482C116.697 36.6359 116.507 37.4586 116.127 37.2687C115.748 37.0789 115.436 34.5566 115.372 34.0503C115.309 33.5441 114.92 33.9871 114.92 33.9871" fill="#FBE6C0"/>
<path d="M112.787 36.9772C112.787 36.9772 114.112 35.463 115.047 34.5183C115.983 33.5735 117.194 33.1938 116.941 34.012C116.688 34.8301 115.3 36.0325 115.3 36.0325C115.3 36.0325 115.3 37.6055 114.921 38.2926C114.541 38.9797 114.609 39.617 113.596 39.3639" fill="#FBE6C0"/>
<path d="M111.969 42.3838L112.159 46.6057L117.266 45.9774L117.452 41.751L111.969 42.3838Z" fill="#FBE6C0"/>
</g>
</svg>
