<svg width="66" height="80" viewBox="0 0 66 80" fill="none" xmlns="http://www.w3.org/2000/svg">
<path d="M65.0548 0H0.945312V80H65.0548V0Z" fill="#FBE6C0"/>
<mask id="mask0_6568_1490" style="mask-type:luminance" maskUnits="userSpaceOnUse" x="0" y="0" width="66" height="80">
<path d="M65.0548 0H0.945312V80H65.0548V0Z" fill="white"/>
</mask>
<g mask="url(#mask0_6568_1490)">
<path opacity="0.18" d="M65.0548 0H0.945312V80H65.0548V0Z" fill="#020213"/>
<path d="M65.0549 0H38.8398V80H65.0549V0Z" fill="#020213"/>
<path d="M65.0548 27.7393H0.945312V52.2553H65.0548V27.7393Z" fill="#020213"/>
<path d="M51.3746 0H49.0215V80H51.3746V0Z" fill="#D4AF37"/>
<path d="M21.148 0H18.7949V80H21.148V0Z" fill="#020213"/>
<path d="M5.09206 78.5015C5.07559 78.5014 5.05936 78.4983 5.04449 78.4925C5.02961 78.4867 5.01644 78.4783 5.00591 78.4678C4.90013 78.3896 4.81677 78.293 4.76187 78.1849C4.70698 78.0768 4.68193 77.9599 4.68854 77.8428C4.69022 77.8305 4.69485 77.8186 4.70217 77.8078C4.70948 77.7969 4.71933 77.7874 4.73114 77.7798C4.74295 77.7721 4.7565 77.7664 4.77097 77.7631C4.78545 77.7598 4.80058 77.759 4.81549 77.7605C4.84477 77.7633 4.87156 77.7755 4.89018 77.7943C4.9088 77.8132 4.91779 77.8373 4.91523 77.8616C4.91261 77.9537 4.93484 78.0451 4.98033 78.1293C5.02581 78.2134 5.0934 78.2881 5.1782 78.3481C5.19897 78.3656 5.2106 78.3891 5.2106 78.4136C5.2106 78.438 5.19897 78.4616 5.1782 78.479C5.154 78.4953 5.12319 78.5033 5.09206 78.5015Z" fill="#020213"/>
<path d="M5.65405 78.9486H5.45908C5.43558 78.9442 5.41429 78.9339 5.39808 78.9192C5.38187 78.9045 5.37151 78.886 5.36841 78.8663C5.35079 78.6868 5.40667 78.5075 5.52709 78.3573C5.58566 78.292 5.62719 78.2174 5.64904 78.1382C5.67089 78.0589 5.6726 77.9768 5.65405 77.897C5.60871 77.7473 5.5407 77.6987 5.50443 77.6912C5.46815 77.6837 5.48175 77.6912 5.46361 77.6912C5.4394 77.7273 5.4267 77.7678 5.4267 77.8091C5.4267 77.8503 5.4394 77.8909 5.46361 77.927C5.47658 77.9494 5.47864 77.9751 5.46936 77.9988C5.46009 78.0224 5.44018 78.0423 5.41374 78.0542C5.4001 78.0599 5.38522 78.0632 5.36998 78.064C5.35475 78.0648 5.33947 78.0631 5.32508 78.0589C5.31068 78.0547 5.29746 78.0481 5.28621 78.0396C5.27496 78.0311 5.2659 78.0208 5.25959 78.0093C5.20996 77.945 5.18359 77.8704 5.18359 77.7941C5.18359 77.7179 5.20996 77.6432 5.25959 77.5789C5.28927 77.5447 5.33037 77.5184 5.37786 77.5031C5.42535 77.4878 5.47719 77.4843 5.52709 77.4929C5.61323 77.4929 5.76739 77.5752 5.849 77.8409C5.8728 77.9427 5.87182 78.0474 5.84614 78.1489C5.82045 78.2505 5.77056 78.3467 5.69938 78.4322C5.62356 78.5307 5.57553 78.6419 5.55883 78.7578C5.88981 78.7802 6.01222 78.6605 6.11197 78.4135C6.11733 78.4019 6.12539 78.3914 6.13569 78.3824C6.146 78.3734 6.15834 78.3662 6.17202 78.3612C6.18571 78.3561 6.20046 78.3533 6.21544 78.353C6.23041 78.3527 6.24533 78.3548 6.25932 78.3592C6.27331 78.3636 6.28611 78.3703 6.29699 78.3788C6.30786 78.3873 6.31661 78.3975 6.32271 78.4088C6.32881 78.4201 6.33216 78.4323 6.33257 78.4446C6.33297 78.457 6.33042 78.4693 6.32506 78.4808C6.29271 78.6095 6.20902 78.7255 6.08738 78.8103C5.96574 78.8951 5.81316 78.9438 5.65405 78.9486Z" fill="#020213"/>
<path d="M6.44342 78.49C6.38513 78.4915 6.32717 78.4822 6.27381 78.4628C6.22045 78.4434 6.17306 78.4143 6.13511 78.3778C6.03112 78.2225 5.97656 78.048 5.97656 77.8707C5.97656 77.6933 6.03112 77.5188 6.13511 77.3636C6.14791 77.3474 6.16716 77.3355 6.18952 77.3299C6.19839 77.3169 6.21078 77.3057 6.22571 77.2973C6.24065 77.2888 6.25774 77.2834 6.27566 77.2813C6.45384 77.2626 6.63417 77.2978 6.78336 77.3803C6.93254 77.4629 7.04048 77.5872 7.08723 77.7303C7.14524 77.8572 7.14446 77.9972 7.08505 78.1236C7.02564 78.25 6.91179 78.3538 6.76533 78.4152C6.6663 78.46 6.55621 78.4856 6.44342 78.49ZM6.26206 77.6218C6.21506 77.7238 6.19441 77.8327 6.20144 77.9416C6.20847 78.0505 6.24301 78.157 6.30287 78.2543C6.37541 78.3216 6.50236 78.3179 6.67918 78.2543C6.77458 78.2106 6.84772 78.1401 6.8852 78.0555C6.92267 77.971 6.92196 77.8781 6.88321 77.794C6.85657 77.7044 6.7952 77.6245 6.70844 77.5664C6.62168 77.5083 6.51428 77.4752 6.40261 77.4721C6.40037 77.4908 6.40037 77.5096 6.40261 77.5283C6.40651 77.5525 6.39873 77.5771 6.38092 77.5967C6.36312 77.6163 6.33673 77.6293 6.3074 77.633C6.29224 77.6365 6.27609 77.6351 6.26206 77.6293V77.6218Z" fill="#020213"/>
<path d="M3.39983 78.2545C3.227 78.2809 3.04855 78.2639 2.88749 78.2058C2.81411 78.1708 2.73664 78.142 2.65627 78.1198C2.57919 78.1198 2.53838 78.1647 2.45677 78.0786L2.4069 78.0225C2.3797 77.9925 2.37516 77.9551 2.4069 77.9401C2.48929 77.7753 2.52942 77.5982 2.52478 77.4199C2.51528 77.1538 2.54267 76.8876 2.60639 76.6266C2.69254 76.2261 3.01444 74.9163 3.45423 74.9725C3.65826 74.9986 3.75801 75.1708 3.65373 75.9941C3.60005 76.5213 3.43108 77.0361 3.15499 77.5135C3.05249 77.6366 3.00009 77.7834 3.00537 77.9326H3.03258C3.11419 77.9925 3.2502 77.9925 3.42249 77.9326C3.59478 77.8728 3.59025 77.7605 3.62652 77.5584C3.6628 77.3563 3.68546 77.2628 3.84868 77.2141C4.0119 77.1655 4.17059 77.2553 4.30207 77.3488L4.38369 77.405C4.41996 77.405 4.53331 77.2553 4.63759 77.0682C4.63759 77.0682 4.63758 77.0682 4.69199 76.8885C4.72375 76.7377 4.78178 76.5915 4.86428 76.4544L4.91415 76.3945C5.00495 76.371 5.10068 76.3634 5.19525 76.3721C5.21503 76.3826 5.23015 76.3982 5.23832 76.4164C5.24649 76.4346 5.24729 76.4545 5.2406 76.4731C5.2406 76.5106 5.20886 76.5704 5.19979 76.6041C5.19072 76.6378 5.19979 76.6752 5.24513 76.679L5.36755 76.649C5.4853 76.6274 5.59465 76.5818 5.68569 76.5164C5.77673 76.4511 5.84659 76.368 5.88894 76.2748C5.98078 76.0923 6.13926 75.9379 6.34233 75.8332L6.79572 75.6161C6.9 75.5637 6.88641 75.3991 7.01789 75.3654C7.27179 75.298 7.13123 75.7097 7.05869 75.7808C6.90229 75.8995 6.72496 75.9979 6.53276 76.0727C6.38476 76.1515 6.27055 76.2667 6.20631 76.402C6.14496 76.5315 6.04651 76.6468 5.91939 76.7381C5.79226 76.8293 5.64025 76.8938 5.47635 76.926L5.40382 76.9447C5.28286 76.9226 5.15753 76.9226 5.03657 76.9447C4.94589 77.2628 4.85522 77.5921 4.58318 77.6707C4.50225 77.6841 4.41856 77.6809 4.33949 77.6613C4.26043 77.6417 4.18841 77.6064 4.12979 77.5584L4.08445 77.5247C4.05271 77.506 4.01644 77.5247 4.00737 77.5659V77.6295C4.00614 77.7461 3.96725 77.8602 3.89472 77.9602C3.82219 78.0602 3.71865 78.1424 3.59478 78.1983L3.39983 78.2545ZM3.34089 75.7022C3.34089 75.545 3.27741 75.575 3.19127 75.7696C3.07636 76.0654 2.98995 76.3682 2.93284 76.6752C2.86483 76.9858 2.86029 77.027 2.86029 77.027C2.86029 77.2328 2.91923 77.2478 3.00991 77.0532C3.16527 76.7021 3.26582 76.3362 3.30915 75.9642L3.34089 75.7022Z" fill="#020213"/>
<path d="M36.2633 0H33.9102V80H36.2633V0Z" fill="#020213"/>
<path d="M51.8872 38.2709C50.7718 35.9731 46.8726 33.215 43.5311 31.8341C40.1897 30.4532 35.7328 32.5264 35.7328 32.5264C36.4942 31.6764 37.0355 30.7062 37.3233 29.6761C37.6112 28.646 37.6392 27.5781 37.4058 26.5387C36.5671 23.092 34.3409 23.092 33.2256 21.7111C32.1102 20.3301 31.5571 18.953 29.3264 16.6552C27.0957 14.3574 24.593 15.9628 22.0721 15.7346C19.5513 15.5063 16.5 13.665 13.1585 13.665C9.81698 13.665 7.30973 16.1949 7.30973 16.1949C7.30973 16.1949 5.91782 16.6552 4.24481 17.3438C2.57179 18.0323 3.68713 20.3376 6.19438 22.1714C8.70164 24.0051 8.97821 25.1652 10.0936 24.4692C11.2089 23.7731 10.0936 22.6317 7.5863 21.0225C5.07904 19.4133 9.53588 19.8736 11.4855 19.8736C13.435 19.8736 17.8919 25.8613 18.4495 27.231C19.0072 28.6007 22.3487 32.7472 24.5794 40.1047C26.8101 47.4621 27.0867 56.4288 27.3632 64.2428C27.599 70.8892 29.4443 78.0295 29.9929 80.0205H32.4729C32.2281 78.5235 31.7294 76.0536 30.9858 74.8186C29.8705 72.9811 30.7047 69.5307 30.9858 65.3917C31.2669 61.2526 33.4931 59.1869 34.3273 54.8195C35.1616 50.4522 34.6039 48.1507 38.2265 42.6345C41.8491 37.1183 44.3881 37.5898 49.1033 38.2709C51.1391 38.5703 52.1411 39.0194 52.54 39.2888C52.2689 38.9748 52.0494 38.6325 51.8872 38.2709Z" fill="#D4AF37"/>
<path d="M22.2872 80.0223H24.8942C24.9849 75.6663 25.2071 61.1385 24.0282 59.1887C22.6363 56.8872 18.7372 56.1949 17.0641 54.8214L13.7227 52.0596C13.7227 52.0596 14.838 56.8872 17.0641 58.7284C19.2903 60.5697 19.5714 62.1751 19.5714 63.0957C19.5714 64.0164 22.0877 66.7745 22.6273 69.9929C23.0444 72.3131 22.5774 77.3728 22.2872 80.0223Z" fill="#D4AF37"/>
<path d="M11.5012 19.8803C11.5012 19.8803 14.9107 19.8803 15.9535 21.6205C16.9963 23.3606 18.302 26.1449 21.6979 26.7886C25.0938 27.4323 28.4988 29.5916 28.7436 30.4524C28.9884 31.3131 30.3078 30.022 32.135 30.2353C33.9621 30.4486 34.2251 32.8213 36.0523 30.8827C37.8794 28.9442 36.8367 26.362 35.2679 24.8651C33.6992 23.3681 29.265 19.9102 28.467 18.6191C27.6691 17.328 25.0757 16.6806 22.7271 17.1222C20.3785 17.5638 19.3357 15.8311 15.16 15.8311C10.9843 15.8311 7.31182 17.2756 11.5012 19.8803Z" fill="#020213"/>
<path d="M35.7759 33.0489C35.7759 33.0489 34.9281 38.7784 35.1094 40.0021C35.2908 41.2259 37.6393 35.8332 39.7295 34.5458C42.9984 32.5287 49.3822 35.9829 49.3822 35.9829C49.3822 35.9829 44.7576 31.5781 41.4252 31.5781C38.4963 31.5781 37.8479 31.8363 35.7759 33.0489Z" fill="#020213"/>
<path d="M20.1759 62.9253C20.1759 62.9253 22.7013 60.7435 22.5834 59.3513C22.4655 57.9592 19.455 56.9712 17.8908 56.2751C16.3266 55.579 14.6445 53.7939 14.6445 53.7939C14.6445 53.7939 15.3745 56.6718 17.052 57.8619C18.7296 59.0519 19.5774 59.153 19.8177 60.1484C20.058 61.1439 19.6953 63.0338 20.1759 62.9253Z" fill="#020213"/>
</g>
</svg>
